<?xml version="1.0" encoding="utf-8"?>
<svg xmlns="http://www.w3.org/2000/svg" xmlns:xlink="http://www.w3.org/1999/xlink" width="600" height="400" viewBox="0 0 2400 1600">
<defs>
  <clipPath id="clip940">
    <rect x="0" y="0" width="2400" height="1600"/>
  </clipPath>
</defs>
<path clip-path="url(#clip940)" d="
M0 1600 L2400 1600 L2400 0 L0 0  Z
  " fill="#ffffff" fill-rule="evenodd" fill-opacity="1"/>
<defs>
  <clipPath id="clip941">
    <rect x="480" y="0" width="1681" height="1600"/>
  </clipPath>
</defs>
<path clip-path="url(#clip940)" d="
M249.542 1414.54 L2352.76 1414.54 L2352.76 47.2441 L249.542 47.2441  Z
  " fill="#ffffff" fill-rule="evenodd" fill-opacity="1"/>
<defs>
  <clipPath id="clip942">
    <rect x="249" y="47" width="2104" height="1368"/>
  </clipPath>
</defs>
<polyline clip-path="url(#clip942)" style="stroke:#000000; stroke-linecap:butt; stroke-linejoin:round; stroke-width:2; stroke-opacity:0.1; fill:none" points="
  249.542,1414.54 249.542,47.2441 
  "/>
<polyline clip-path="url(#clip942)" style="stroke:#000000; stroke-linecap:butt; stroke-linejoin:round; stroke-width:2; stroke-opacity:0.1; fill:none" points="
  679.003,1414.54 679.003,47.2441 
  "/>
<polyline clip-path="url(#clip942)" style="stroke:#000000; stroke-linecap:butt; stroke-linejoin:round; stroke-width:2; stroke-opacity:0.1; fill:none" points="
  1108.46,1414.54 1108.46,47.2441 
  "/>
<polyline clip-path="url(#clip942)" style="stroke:#000000; stroke-linecap:butt; stroke-linejoin:round; stroke-width:2; stroke-opacity:0.1; fill:none" points="
  1537.93,1414.54 1537.93,47.2441 
  "/>
<polyline clip-path="url(#clip942)" style="stroke:#000000; stroke-linecap:butt; stroke-linejoin:round; stroke-width:2; stroke-opacity:0.1; fill:none" points="
  1967.39,1414.54 1967.39,47.2441 
  "/>
<polyline clip-path="url(#clip940)" style="stroke:#000000; stroke-linecap:butt; stroke-linejoin:round; stroke-width:4; stroke-opacity:1; fill:none" points="
  249.542,1414.54 2352.76,1414.54 
  "/>
<polyline clip-path="url(#clip940)" style="stroke:#000000; stroke-linecap:butt; stroke-linejoin:round; stroke-width:4; stroke-opacity:1; fill:none" points="
  249.542,1414.54 249.542,1395.64 
  "/>
<polyline clip-path="url(#clip940)" style="stroke:#000000; stroke-linecap:butt; stroke-linejoin:round; stroke-width:4; stroke-opacity:1; fill:none" points="
  679.003,1414.54 679.003,1395.64 
  "/>
<polyline clip-path="url(#clip940)" style="stroke:#000000; stroke-linecap:butt; stroke-linejoin:round; stroke-width:4; stroke-opacity:1; fill:none" points="
  1108.46,1414.54 1108.46,1395.64 
  "/>
<polyline clip-path="url(#clip940)" style="stroke:#000000; stroke-linecap:butt; stroke-linejoin:round; stroke-width:4; stroke-opacity:1; fill:none" points="
  1537.93,1414.54 1537.93,1395.64 
  "/>
<polyline clip-path="url(#clip940)" style="stroke:#000000; stroke-linecap:butt; stroke-linejoin:round; stroke-width:4; stroke-opacity:1; fill:none" points="
  1967.39,1414.54 1967.39,1395.64 
  "/>
<path clip-path="url(#clip940)" d="M229.042 1482.82 L249.441 1482.82 L249.441 1487.74 L222.01 1487.74 L222.01 1482.82 Q225.338 1479.38 231.067 1473.59 Q236.825 1467.77 238.301 1466.1 Q241.107 1462.94 242.207 1460.77 Q243.335 1458.57 243.335 1456.46 Q243.335 1453.02 240.905 1450.85 Q238.503 1448.68 234.626 1448.68 Q231.877 1448.68 228.81 1449.63 Q225.772 1450.59 222.3 1452.53 L222.3 1446.62 Q225.83 1445.21 228.897 1444.48 Q231.964 1443.76 234.51 1443.76 Q241.223 1443.76 245.216 1447.12 Q249.209 1450.47 249.209 1456.08 Q249.209 1458.75 248.197 1461.15 Q247.213 1463.52 244.58 1466.76 Q243.856 1467.6 239.979 1471.62 Q236.102 1475.62 229.042 1482.82 Z" fill="#000000" fill-rule="evenodd" fill-opacity="1" /><path clip-path="url(#clip940)" d="M271.865 1448.82 Q270.419 1446.33 267.496 1446.33 Q264.574 1446.33 263.127 1448.82 Q261.651 1451.31 261.651 1456.29 Q261.651 1461.29 263.127 1463.78 Q264.574 1466.27 267.496 1466.27 Q270.419 1466.27 271.865 1463.78 Q273.341 1461.29 273.341 1456.29 Q273.341 1451.31 271.865 1448.82 M267.496 1443.76 Q272.155 1443.76 274.614 1446.97 Q277.074 1450.18 277.074 1456.29 Q277.074 1462.42 274.614 1465.63 Q272.155 1468.85 267.496 1468.85 Q262.809 1468.85 260.349 1465.63 Q257.89 1462.42 257.89 1456.29 Q257.89 1450.18 260.349 1446.97 Q262.809 1443.76 267.496 1443.76 Z" fill="#000000" fill-rule="evenodd" fill-opacity="1" /><path clip-path="url(#clip940)" d="M659.096 1482.82 L679.495 1482.82 L679.495 1487.74 L652.065 1487.74 L652.065 1482.82 Q655.392 1479.38 661.122 1473.59 Q666.88 1467.77 668.355 1466.1 Q671.162 1462.94 672.261 1460.77 Q673.39 1458.57 673.39 1456.46 Q673.39 1453.02 670.959 1450.85 Q668.558 1448.68 664.681 1448.68 Q661.932 1448.68 658.865 1449.63 Q655.826 1450.59 652.354 1452.53 L652.354 1446.62 Q655.884 1445.21 658.951 1444.48 Q662.018 1443.76 664.565 1443.76 Q671.278 1443.76 675.271 1447.12 Q679.264 1450.47 679.264 1456.08 Q679.264 1458.75 678.251 1461.15 Q677.267 1463.52 674.634 1466.76 Q673.911 1467.6 670.033 1471.62 Q666.156 1475.62 659.096 1482.82 Z" fill="#000000" fill-rule="evenodd" fill-opacity="1" /><path clip-path="url(#clip940)" d="M689.941 1465.23 L695.844 1465.23 L695.844 1447.55 L689.391 1448.74 L689.391 1445.38 L696.046 1444.25 L700.01 1444.25 L700.01 1465.23 L705.942 1465.23 L705.942 1468.41 L689.941 1468.41 L689.941 1465.23 Z" fill="#000000" fill-rule="evenodd" fill-opacity="1" /><path clip-path="url(#clip940)" d="M1088.8 1482.82 L1109.2 1482.82 L1109.2 1487.74 L1081.77 1487.74 L1081.77 1482.82 Q1085.1 1479.38 1090.83 1473.59 Q1096.59 1467.77 1098.06 1466.1 Q1100.87 1462.94 1101.97 1460.77 Q1103.1 1458.57 1103.1 1456.46 Q1103.1 1453.02 1100.67 1450.85 Q1098.27 1448.68 1094.39 1448.68 Q1091.64 1448.68 1088.57 1449.63 Q1085.53 1450.59 1082.06 1452.53 L1082.06 1446.62 Q1085.59 1445.21 1088.66 1444.48 Q1091.73 1443.76 1094.27 1443.76 Q1100.98 1443.76 1104.98 1447.12 Q1108.97 1450.47 1108.97 1456.08 Q1108.97 1458.75 1107.96 1461.15 Q1106.97 1463.52 1104.34 1466.76 Q1103.62 1467.6 1099.74 1471.62 Q1095.86 1475.62 1088.8 1482.82 Z" fill="#000000" fill-rule="evenodd" fill-opacity="1" /><path clip-path="url(#clip940)" d="M1122.89 1465.11 L1135.16 1465.11 L1135.16 1468.41 L1117.85 1468.41 L1117.85 1465.23 Q1118.84 1464.33 1120.66 1462.71 Q1130.61 1453.89 1130.61 1451.17 Q1130.61 1449.26 1129.11 1448.1 Q1127.61 1446.91 1125.15 1446.91 Q1123.64 1446.91 1121.88 1447.43 Q1120.11 1447.93 1118.03 1448.94 L1118.03 1445.38 Q1120.26 1444.57 1122.17 1444.16 Q1124.1 1443.76 1125.75 1443.76 Q1129.95 1443.76 1132.47 1445.67 Q1134.98 1447.58 1134.98 1450.7 Q1134.98 1454.72 1125.41 1462.94 Q1123.79 1464.33 1122.89 1465.11 Z" fill="#000000" fill-rule="evenodd" fill-opacity="1" /><path clip-path="url(#clip940)" d="M1517.9 1482.82 L1538.3 1482.82 L1538.3 1487.74 L1510.87 1487.74 L1510.87 1482.82 Q1514.2 1479.38 1519.93 1473.59 Q1525.69 1467.77 1527.16 1466.1 Q1529.97 1462.94 1531.07 1460.77 Q1532.2 1458.57 1532.2 1456.46 Q1532.2 1453.02 1529.77 1450.85 Q1527.36 1448.68 1523.49 1448.68 Q1520.74 1448.68 1517.67 1449.63 Q1514.63 1450.59 1511.16 1452.53 L1511.16 1446.62 Q1514.69 1445.21 1517.76 1444.48 Q1520.83 1443.76 1523.37 1443.76 Q1530.08 1443.76 1534.08 1447.12 Q1538.07 1450.47 1538.07 1456.08 Q1538.07 1458.75 1537.06 1461.15 Q1536.07 1463.52 1533.44 1466.76 Q1532.72 1467.6 1528.84 1471.62 Q1524.96 1475.62 1517.9 1482.82 Z" fill="#000000" fill-rule="evenodd" fill-opacity="1" /><path clip-path="url(#clip940)" d="M1559.4 1455.33 Q1562.06 1455.85 1563.5 1457.44 Q1564.98 1459.01 1564.98 1461.38 Q1564.98 1464.97 1562.23 1466.91 Q1559.48 1468.85 1554.36 1468.85 Q1552.71 1468.85 1550.89 1468.56 Q1549.09 1468.24 1547.07 1467.66 L1547.07 1464.16 Q1548.57 1464.94 1550.28 1465.32 Q1552.02 1465.69 1553.96 1465.69 Q1557.11 1465.69 1558.85 1464.56 Q1560.58 1463.41 1560.58 1461.38 Q1560.58 1459.24 1558.96 1458.14 Q1557.37 1457.04 1554.25 1457.04 L1551.76 1457.04 L1551.76 1453.91 L1554.48 1453.91 Q1557.2 1453.91 1558.59 1453.02 Q1560 1452.09 1560 1450.36 Q1560 1448.68 1558.56 1447.81 Q1557.11 1446.91 1554.36 1446.91 Q1553.2 1446.91 1551.73 1447.17 Q1550.25 1447.43 1547.91 1448.1 L1547.91 1444.77 Q1550.02 1444.28 1551.87 1444.02 Q1553.72 1443.76 1555.32 1443.76 Q1559.48 1443.76 1561.91 1445.47 Q1564.37 1447.17 1564.37 1450.04 Q1564.37 1452.03 1563.07 1453.42 Q1561.77 1454.81 1559.4 1455.33 Z" fill="#000000" fill-rule="evenodd" fill-opacity="1" /><path clip-path="url(#clip940)" d="M1946.8 1482.82 L1967.2 1482.82 L1967.2 1487.74 L1939.77 1487.74 L1939.77 1482.82 Q1943.1 1479.38 1948.83 1473.59 Q1954.58 1467.77 1956.06 1466.1 Q1958.87 1462.94 1959.97 1460.77 Q1961.09 1458.57 1961.09 1456.46 Q1961.09 1453.02 1958.66 1450.85 Q1956.26 1448.68 1952.38 1448.68 Q1949.64 1448.68 1946.57 1449.63 Q1943.53 1450.59 1940.06 1452.53 L1940.06 1446.62 Q1943.59 1445.21 1946.66 1444.48 Q1949.72 1443.76 1952.27 1443.76 Q1958.98 1443.76 1962.97 1447.12 Q1966.97 1450.47 1966.97 1456.08 Q1966.97 1458.75 1965.96 1461.15 Q1964.97 1463.52 1962.34 1466.76 Q1961.61 1467.6 1957.74 1471.62 Q1953.86 1475.62 1946.8 1482.82 Z" fill="#000000" fill-rule="evenodd" fill-opacity="1" /><path clip-path="url(#clip940)" d="M1986.93 1447.75 L1977.99 1459.88 L1986.93 1459.88 L1986.93 1447.75 M1986.3 1444.25 L1991.1 1444.25 L1991.1 1459.88 L1995.01 1459.88 L1995.01 1463.03 L1991.1 1463.03 L1991.1 1468.41 L1986.93 1468.41 L1986.93 1463.03 L1974.95 1463.03 L1974.95 1459.53 L1986.3 1444.25 Z" fill="#000000" fill-rule="evenodd" fill-opacity="1" /><path clip-path="url(#clip940)" d="M659.343 1524.84 L665.836 1524.84 L675.83 1565.01 L685.792 1524.84 L693.017 1524.84 L703.011 1565.01 L712.974 1524.84 L719.498 1524.84 L707.563 1572.36 L699.478 1572.36 L689.452 1531.11 L679.331 1572.36 L671.246 1572.36 L659.343 1524.84 Z" fill="#000000" fill-rule="evenodd" fill-opacity="1" /><path clip-path="url(#clip940)" d="M726.342 1536.72 L732.198 1536.72 L732.198 1572.36 L726.342 1572.36 L726.342 1536.72 M726.342 1522.84 L732.198 1522.84 L732.198 1530.25 L726.342 1530.25 L726.342 1522.84 Z" fill="#000000" fill-rule="evenodd" fill-opacity="1" /><path clip-path="url(#clip940)" d="M750.245 1526.59 L750.245 1536.72 L762.308 1536.72 L762.308 1541.27 L750.245 1541.27 L750.245 1560.62 Q750.245 1564.98 751.422 1566.22 Q752.632 1567.46 756.292 1567.46 L762.308 1567.46 L762.308 1572.36 L756.292 1572.36 Q749.513 1572.36 746.935 1569.85 Q744.357 1567.3 744.357 1560.62 L744.357 1541.27 L740.06 1541.27 L740.06 1536.72 L744.357 1536.72 L744.357 1526.59 L750.245 1526.59 Z" fill="#000000" fill-rule="evenodd" fill-opacity="1" /><path clip-path="url(#clip940)" d="M799.643 1550.85 L799.643 1572.36 L793.786 1572.36 L793.786 1551.04 Q793.786 1545.98 791.813 1543.46 Q789.839 1540.95 785.893 1540.95 Q781.15 1540.95 778.413 1543.97 Q775.676 1547 775.676 1552.22 L775.676 1572.36 L769.788 1572.36 L769.788 1522.84 L775.676 1522.84 L775.676 1542.25 Q777.776 1539.04 780.609 1537.45 Q783.474 1535.86 787.198 1535.86 Q793.341 1535.86 796.492 1539.68 Q799.643 1543.46 799.643 1550.85 Z" fill="#000000" fill-rule="evenodd" fill-opacity="1" /><path clip-path="url(#clip940)" d="M811.324 1536.72 L817.18 1536.72 L817.18 1572.36 L811.324 1572.36 L811.324 1536.72 M811.324 1522.84 L817.18 1522.84 L817.18 1530.25 L811.324 1530.25 L811.324 1522.84 Z" fill="#000000" fill-rule="evenodd" fill-opacity="1" /><path clip-path="url(#clip940)" d="M859.067 1550.85 L859.067 1572.36 L853.21 1572.36 L853.21 1551.04 Q853.21 1545.98 851.237 1543.46 Q849.263 1540.95 845.317 1540.95 Q840.574 1540.95 837.837 1543.97 Q835.1 1547 835.1 1552.22 L835.1 1572.36 L829.211 1572.36 L829.211 1536.72 L835.1 1536.72 L835.1 1542.25 Q837.2 1539.04 840.033 1537.45 Q842.898 1535.86 846.622 1535.86 Q852.765 1535.86 855.916 1539.68 Q859.067 1543.46 859.067 1550.85 Z" fill="#000000" fill-rule="evenodd" fill-opacity="1" /><path clip-path="url(#clip940)" d="M897.261 1526.59 L897.261 1536.72 L909.324 1536.72 L909.324 1541.27 L897.261 1541.27 L897.261 1560.62 Q897.261 1564.98 898.438 1566.22 Q899.648 1567.46 903.308 1567.46 L909.324 1567.46 L909.324 1572.36 L903.308 1572.36 Q896.529 1572.36 893.951 1569.85 Q891.373 1567.3 891.373 1560.62 L891.373 1541.27 L887.076 1541.27 L887.076 1536.72 L891.373 1536.72 L891.373 1526.59 L897.261 1526.59 Z" fill="#000000" fill-rule="evenodd" fill-opacity="1" /><path clip-path="url(#clip940)" d="M946.659 1550.85 L946.659 1572.36 L940.802 1572.36 L940.802 1551.04 Q940.802 1545.98 938.829 1543.46 Q936.855 1540.95 932.909 1540.95 Q928.166 1540.95 925.429 1543.97 Q922.692 1547 922.692 1552.22 L922.692 1572.36 L916.804 1572.36 L916.804 1522.84 L922.692 1522.84 L922.692 1542.25 Q924.792 1539.04 927.625 1537.45 Q930.49 1535.86 934.214 1535.86 Q940.357 1535.86 943.508 1539.68 Q946.659 1543.46 946.659 1550.85 Z" fill="#000000" fill-rule="evenodd" fill-opacity="1" /><path clip-path="url(#clip940)" d="M958.34 1536.72 L964.196 1536.72 L964.196 1572.36 L958.34 1572.36 L958.34 1536.72 M958.34 1522.84 L964.196 1522.84 L964.196 1530.25 L958.34 1530.25 L958.34 1522.84 Z" fill="#000000" fill-rule="evenodd" fill-opacity="1" /><path clip-path="url(#clip940)" d="M999.176 1537.77 L999.176 1543.3 Q996.693 1542.03 994.02 1541.39 Q991.346 1540.76 988.481 1540.76 Q984.121 1540.76 981.925 1542.09 Q979.76 1543.43 979.76 1546.11 Q979.76 1548.14 981.32 1549.32 Q982.88 1550.47 987.59 1551.52 L989.595 1551.96 Q995.834 1553.3 998.444 1555.75 Q1001.09 1558.17 1001.09 1562.53 Q1001.09 1567.49 997.139 1570.39 Q993.224 1573.29 986.349 1573.29 Q983.484 1573.29 980.365 1572.71 Q977.278 1572.17 973.84 1571.06 L973.84 1565.01 Q977.087 1566.7 980.238 1567.56 Q983.389 1568.39 986.476 1568.39 Q990.614 1568.39 992.842 1566.98 Q995.07 1565.55 995.07 1562.97 Q995.07 1560.59 993.447 1559.31 Q991.855 1558.04 986.413 1556.86 L984.375 1556.39 Q978.933 1555.24 976.514 1552.88 Q974.095 1550.5 974.095 1546.36 Q974.095 1541.33 977.66 1538.59 Q981.224 1535.86 987.781 1535.86 Q991.028 1535.86 993.892 1536.33 Q996.757 1536.81 999.176 1537.77 Z" fill="#000000" fill-rule="evenodd" fill-opacity="1" /><path clip-path="url(#clip940)" d="M1049.18 1522.84 L1049.18 1527.71 L1043.58 1527.71 Q1040.43 1527.71 1039.18 1528.98 Q1037.97 1530.25 1037.97 1533.56 L1037.97 1536.72 L1047.62 1536.72 L1047.62 1541.27 L1037.97 1541.27 L1037.97 1572.36 L1032.09 1572.36 L1032.09 1541.27 L1026.48 1541.27 L1026.48 1536.72 L1032.09 1536.72 L1032.09 1534.23 Q1032.09 1528.28 1034.86 1525.58 Q1037.62 1522.84 1043.64 1522.84 L1049.18 1522.84 Z" fill="#000000" fill-rule="evenodd" fill-opacity="1" /><path clip-path="url(#clip940)" d="M1070.28 1554.44 Q1063.18 1554.44 1060.45 1556.07 Q1057.71 1557.69 1057.71 1561.61 Q1057.71 1564.72 1059.75 1566.57 Q1061.81 1568.39 1065.35 1568.39 Q1070.22 1568.39 1073.15 1564.95 Q1076.11 1561.48 1076.11 1555.75 L1076.11 1554.44 L1070.28 1554.44 M1081.96 1552.03 L1081.96 1572.36 L1076.11 1572.36 L1076.11 1566.95 Q1074.1 1570.2 1071.11 1571.76 Q1068.12 1573.29 1063.79 1573.29 Q1058.31 1573.29 1055.07 1570.23 Q1051.85 1567.14 1051.85 1561.99 Q1051.85 1555.97 1055.86 1552.92 Q1059.9 1549.86 1067.89 1549.86 L1076.11 1549.86 L1076.11 1549.29 Q1076.11 1545.25 1073.43 1543.05 Q1070.79 1540.82 1065.98 1540.82 Q1062.93 1540.82 1060.03 1541.55 Q1057.14 1542.29 1054.46 1543.75 L1054.46 1538.34 Q1057.68 1537.1 1060.7 1536.49 Q1063.72 1535.86 1066.59 1535.86 Q1074.32 1535.86 1078.14 1539.87 Q1081.96 1543.88 1081.96 1552.03 Z" fill="#000000" fill-rule="evenodd" fill-opacity="1" /><path clip-path="url(#clip940)" d="M1119.68 1538.08 L1119.68 1543.56 Q1117.2 1542.19 1114.68 1541.52 Q1112.2 1540.82 1109.65 1540.82 Q1103.96 1540.82 1100.8 1544.45 Q1097.65 1548.05 1097.65 1554.57 Q1097.65 1561.1 1100.8 1564.72 Q1103.96 1568.32 1109.65 1568.32 Q1112.2 1568.32 1114.68 1567.65 Q1117.2 1566.95 1119.68 1565.58 L1119.68 1571 Q1117.23 1572.14 1114.59 1572.71 Q1111.98 1573.29 1109.02 1573.29 Q1100.96 1573.29 1096.22 1568.23 Q1091.48 1563.17 1091.48 1554.57 Q1091.48 1545.85 1096.25 1540.85 Q1101.06 1535.86 1109.4 1535.86 Q1112.1 1535.86 1114.68 1536.43 Q1117.26 1536.97 1119.68 1538.08 Z" fill="#000000" fill-rule="evenodd" fill-opacity="1" /><path clip-path="url(#clip940)" d="M1135.66 1526.59 L1135.66 1536.72 L1147.72 1536.72 L1147.72 1541.27 L1135.66 1541.27 L1135.66 1560.62 Q1135.66 1564.98 1136.83 1566.22 Q1138.04 1567.46 1141.7 1567.46 L1147.72 1567.46 L1147.72 1572.36 L1141.7 1572.36 Q1134.92 1572.36 1132.35 1569.85 Q1129.77 1567.3 1129.77 1560.62 L1129.77 1541.27 L1125.47 1541.27 L1125.47 1536.72 L1129.77 1536.72 L1129.77 1526.59 L1135.66 1526.59 Z" fill="#000000" fill-rule="evenodd" fill-opacity="1" /><path clip-path="url(#clip940)" d="M1169.24 1540.82 Q1164.52 1540.82 1161.79 1544.51 Q1159.05 1548.17 1159.05 1554.57 Q1159.05 1560.97 1161.76 1564.66 Q1164.49 1568.32 1169.24 1568.32 Q1173.91 1568.32 1176.65 1564.63 Q1179.39 1560.94 1179.39 1554.57 Q1179.39 1548.24 1176.65 1544.55 Q1173.91 1540.82 1169.24 1540.82 M1169.24 1535.86 Q1176.87 1535.86 1181.23 1540.82 Q1185.6 1545.79 1185.6 1554.57 Q1185.6 1563.32 1181.23 1568.32 Q1176.87 1573.29 1169.24 1573.29 Q1161.56 1573.29 1157.2 1568.32 Q1152.88 1563.32 1152.88 1554.57 Q1152.88 1545.79 1157.2 1540.82 Q1161.56 1535.86 1169.24 1535.86 Z" fill="#000000" fill-rule="evenodd" fill-opacity="1" /><path clip-path="url(#clip940)" d="M1215.96 1542.19 Q1214.97 1541.62 1213.8 1541.36 Q1212.65 1541.08 1211.25 1541.08 Q1206.28 1541.08 1203.61 1544.32 Q1200.97 1547.54 1200.97 1553.59 L1200.97 1572.36 L1195.08 1572.36 L1195.08 1536.72 L1200.97 1536.72 L1200.97 1542.25 Q1202.81 1539.01 1205.77 1537.45 Q1208.73 1535.86 1212.97 1535.86 Q1213.57 1535.86 1214.3 1535.95 Q1215.04 1536.02 1215.93 1536.17 L1215.96 1542.19 Z" fill="#000000" fill-rule="evenodd" fill-opacity="1" /><path clip-path="url(#clip940)" d="M1256.64 1540.82 Q1251.93 1540.82 1249.19 1544.51 Q1246.45 1548.17 1246.45 1554.57 Q1246.45 1560.97 1249.16 1564.66 Q1251.89 1568.32 1256.64 1568.32 Q1261.32 1568.32 1264.05 1564.63 Q1266.79 1560.94 1266.79 1554.57 Q1266.79 1548.24 1264.05 1544.55 Q1261.32 1540.82 1256.64 1540.82 M1256.64 1535.86 Q1264.28 1535.86 1268.64 1540.82 Q1273 1545.79 1273 1554.57 Q1273 1563.32 1268.64 1568.32 Q1264.28 1573.29 1256.64 1573.29 Q1248.97 1573.29 1244.61 1568.32 Q1240.28 1563.32 1240.28 1554.57 Q1240.28 1545.79 1244.61 1540.82 Q1248.97 1535.86 1256.64 1535.86 Z" fill="#000000" fill-rule="evenodd" fill-opacity="1" /><path clip-path="url(#clip940)" d="M1300.75 1522.84 L1300.75 1527.71 L1295.15 1527.71 Q1292 1527.71 1290.76 1528.98 Q1289.55 1530.25 1289.55 1533.56 L1289.55 1536.72 L1299.19 1536.72 L1299.19 1541.27 L1289.55 1541.27 L1289.55 1572.36 L1283.66 1572.36 L1283.66 1541.27 L1278.06 1541.27 L1278.06 1536.72 L1283.66 1536.72 L1283.66 1534.23 Q1283.66 1528.28 1286.43 1525.58 Q1289.2 1522.84 1295.21 1522.84 L1300.75 1522.84 Z" fill="#000000" fill-rule="evenodd" fill-opacity="1" /><path clip-path="url(#clip940)" d="M1332.17 1526.59 L1332.17 1536.72 L1344.23 1536.72 L1344.23 1541.27 L1332.17 1541.27 L1332.17 1560.62 Q1332.17 1564.98 1333.34 1566.22 Q1334.55 1567.46 1338.21 1567.46 L1344.23 1567.46 L1344.23 1572.36 L1338.21 1572.36 Q1331.43 1572.36 1328.86 1569.85 Q1326.28 1567.3 1326.28 1560.62 L1326.28 1541.27 L1321.98 1541.27 L1321.98 1536.72 L1326.28 1536.72 L1326.28 1526.59 L1332.17 1526.59 Z" fill="#000000" fill-rule="evenodd" fill-opacity="1" /><path clip-path="url(#clip940)" d="M1381.56 1550.85 L1381.56 1572.36 L1375.71 1572.36 L1375.71 1551.04 Q1375.71 1545.98 1373.73 1543.46 Q1371.76 1540.95 1367.81 1540.95 Q1363.07 1540.95 1360.33 1543.97 Q1357.6 1547 1357.6 1552.22 L1357.6 1572.36 L1351.71 1572.36 L1351.71 1522.84 L1357.6 1522.84 L1357.6 1542.25 Q1359.7 1539.04 1362.53 1537.45 Q1365.39 1535.86 1369.12 1535.86 Q1375.26 1535.86 1378.41 1539.68 Q1381.56 1543.46 1381.56 1550.85 Z" fill="#000000" fill-rule="evenodd" fill-opacity="1" /><path clip-path="url(#clip940)" d="M1423.74 1553.08 L1423.74 1555.94 L1396.81 1555.94 Q1397.19 1561.99 1400.44 1565.17 Q1403.72 1568.32 1409.54 1568.32 Q1412.91 1568.32 1416.07 1567.49 Q1419.25 1566.67 1422.37 1565.01 L1422.37 1570.55 Q1419.22 1571.89 1415.91 1572.59 Q1412.6 1573.29 1409.19 1573.29 Q1400.66 1573.29 1395.66 1568.32 Q1390.7 1563.36 1390.7 1554.89 Q1390.7 1546.14 1395.41 1541.01 Q1400.15 1535.86 1408.17 1535.86 Q1415.37 1535.86 1419.54 1540.5 Q1423.74 1545.12 1423.74 1553.08 M1417.88 1551.36 Q1417.82 1546.55 1415.17 1543.69 Q1412.56 1540.82 1408.24 1540.82 Q1403.33 1540.82 1400.37 1543.59 Q1397.45 1546.36 1397 1551.39 L1417.88 1551.36 Z" fill="#000000" fill-rule="evenodd" fill-opacity="1" /><path clip-path="url(#clip940)" d="M1479.66 1554.57 Q1479.66 1548.11 1476.99 1544.45 Q1474.34 1540.76 1469.7 1540.76 Q1465.05 1540.76 1462.38 1544.45 Q1459.73 1548.11 1459.73 1554.57 Q1459.73 1561.03 1462.38 1564.72 Q1465.05 1568.39 1469.7 1568.39 Q1474.34 1568.39 1476.99 1564.72 Q1479.66 1561.03 1479.66 1554.57 M1459.73 1542.13 Q1461.58 1538.94 1464.38 1537.42 Q1467.21 1535.86 1471.13 1535.86 Q1477.62 1535.86 1481.66 1541.01 Q1485.74 1546.17 1485.74 1554.57 Q1485.74 1562.97 1481.66 1568.13 Q1477.62 1573.29 1471.13 1573.29 Q1467.21 1573.29 1464.38 1571.76 Q1461.58 1570.2 1459.73 1567.02 L1459.73 1572.36 L1453.85 1572.36 L1453.85 1522.84 L1459.73 1522.84 L1459.73 1542.13 Z" fill="#000000" fill-rule="evenodd" fill-opacity="1" /><path clip-path="url(#clip940)" d="M1525.94 1553.08 L1525.94 1555.94 L1499.01 1555.94 Q1499.39 1561.99 1502.64 1565.17 Q1505.92 1568.32 1511.74 1568.32 Q1515.12 1568.32 1518.27 1567.49 Q1521.45 1566.67 1524.57 1565.01 L1524.57 1570.55 Q1521.42 1571.89 1518.11 1572.59 Q1514.8 1573.29 1511.39 1573.29 Q1502.86 1573.29 1497.87 1568.32 Q1492.9 1563.36 1492.9 1554.89 Q1492.9 1546.14 1497.61 1541.01 Q1502.35 1535.86 1510.37 1535.86 Q1517.57 1535.86 1521.74 1540.5 Q1525.94 1545.12 1525.94 1553.08 M1520.08 1551.36 Q1520.02 1546.55 1517.38 1543.69 Q1514.77 1540.82 1510.44 1540.82 Q1505.54 1540.82 1502.58 1543.59 Q1499.65 1546.36 1499.2 1551.39 L1520.08 1551.36 Z" fill="#000000" fill-rule="evenodd" fill-opacity="1" /><path clip-path="url(#clip940)" d="M1558.28 1537.77 L1558.28 1543.3 Q1555.79 1542.03 1553.12 1541.39 Q1550.45 1540.76 1547.58 1540.76 Q1543.22 1540.76 1541.02 1542.09 Q1538.86 1543.43 1538.86 1546.11 Q1538.86 1548.14 1540.42 1549.32 Q1541.98 1550.47 1546.69 1551.52 L1548.7 1551.96 Q1554.93 1553.3 1557.54 1555.75 Q1560.19 1558.17 1560.19 1562.53 Q1560.19 1567.49 1556.24 1570.39 Q1552.32 1573.29 1545.45 1573.29 Q1542.58 1573.29 1539.47 1572.71 Q1536.38 1572.17 1532.94 1571.06 L1532.94 1565.01 Q1536.19 1566.7 1539.34 1567.56 Q1542.49 1568.39 1545.58 1568.39 Q1549.71 1568.39 1551.94 1566.98 Q1554.17 1565.55 1554.17 1562.97 Q1554.17 1560.59 1552.55 1559.31 Q1550.96 1558.04 1545.51 1556.86 L1543.48 1556.39 Q1538.03 1555.24 1535.61 1552.88 Q1533.19 1550.5 1533.19 1546.36 Q1533.19 1541.33 1536.76 1538.59 Q1540.32 1535.86 1546.88 1535.86 Q1550.13 1535.86 1552.99 1536.33 Q1555.86 1536.81 1558.28 1537.77 Z" fill="#000000" fill-rule="evenodd" fill-opacity="1" /><path clip-path="url(#clip940)" d="M1575.3 1526.59 L1575.3 1536.72 L1587.37 1536.72 L1587.37 1541.27 L1575.3 1541.27 L1575.3 1560.62 Q1575.3 1564.98 1576.48 1566.22 Q1577.69 1567.46 1581.35 1567.46 L1587.37 1567.46 L1587.37 1572.36 L1581.35 1572.36 Q1574.57 1572.36 1571.99 1569.85 Q1569.42 1567.3 1569.42 1560.62 L1569.42 1541.27 L1565.12 1541.27 L1565.12 1536.72 L1569.42 1536.72 L1569.42 1526.59 L1575.3 1526.59 Z" fill="#000000" fill-rule="evenodd" fill-opacity="1" /><path clip-path="url(#clip940)" d="M1629.86 1522.9 Q1625.59 1530.22 1623.52 1537.38 Q1621.46 1544.55 1621.46 1551.9 Q1621.46 1559.25 1623.52 1566.48 Q1625.62 1573.67 1629.86 1580.96 L1624.77 1580.96 Q1619.99 1573.48 1617.6 1566.25 Q1615.25 1559.03 1615.25 1551.9 Q1615.25 1544.8 1617.6 1537.61 Q1619.96 1530.41 1624.77 1522.9 L1629.86 1522.9 Z" fill="#000000" fill-rule="evenodd" fill-opacity="1" /><path clip-path="url(#clip940)" d="M1641.22 1522.84 L1647.08 1522.84 L1647.08 1572.36 L1641.22 1572.36 L1641.22 1522.84 Z" fill="#000000" fill-rule="evenodd" fill-opacity="1" /><path clip-path="url(#clip940)" d="M1673.14 1540.82 Q1668.43 1540.82 1665.7 1544.51 Q1662.96 1548.17 1662.96 1554.57 Q1662.96 1560.97 1665.67 1564.66 Q1668.4 1568.32 1673.14 1568.32 Q1677.82 1568.32 1680.56 1564.63 Q1683.3 1560.94 1683.3 1554.57 Q1683.3 1548.24 1680.56 1544.55 Q1677.82 1540.82 1673.14 1540.82 M1673.14 1535.86 Q1680.78 1535.86 1685.14 1540.82 Q1689.5 1545.79 1689.5 1554.57 Q1689.5 1563.32 1685.14 1568.32 Q1680.78 1573.29 1673.14 1573.29 Q1665.47 1573.29 1661.11 1568.32 Q1656.79 1563.32 1656.79 1554.57 Q1656.79 1545.79 1661.11 1540.82 Q1665.47 1535.86 1673.14 1535.86 Z" fill="#000000" fill-rule="evenodd" fill-opacity="1" /><path clip-path="url(#clip940)" d="M1722.67 1554.13 Q1722.67 1547.76 1720.03 1544.26 Q1717.42 1540.76 1712.68 1540.76 Q1707.97 1540.76 1705.32 1544.26 Q1702.71 1547.76 1702.71 1554.13 Q1702.71 1560.46 1705.32 1563.96 Q1707.97 1567.46 1712.68 1567.46 Q1717.42 1567.46 1720.03 1563.96 Q1722.67 1560.46 1722.67 1554.13 M1728.53 1567.94 Q1728.53 1577.04 1724.48 1581.47 Q1720.44 1585.92 1712.1 1585.92 Q1709.02 1585.92 1706.28 1585.45 Q1703.54 1585 1700.96 1584.04 L1700.96 1578.35 Q1703.54 1579.75 1706.06 1580.42 Q1708.57 1581.08 1711.18 1581.08 Q1716.94 1581.08 1719.81 1578.06 Q1722.67 1575.07 1722.67 1568.99 L1722.67 1566.09 Q1720.86 1569.24 1718.02 1570.8 Q1715.19 1572.36 1711.24 1572.36 Q1704.69 1572.36 1700.68 1567.37 Q1696.67 1562.37 1696.67 1554.13 Q1696.67 1545.85 1700.68 1540.85 Q1704.69 1535.86 1711.24 1535.86 Q1715.19 1535.86 1718.02 1537.42 Q1720.86 1538.98 1722.67 1542.13 L1722.67 1536.72 L1728.53 1536.72 L1728.53 1567.94 Z" fill="#000000" fill-rule="evenodd" fill-opacity="1" /><path clip-path="url(#clip940)" d="M1784.04 1537.77 L1784.04 1543.3 Q1781.55 1542.03 1778.88 1541.39 Q1776.21 1540.76 1773.34 1540.76 Q1768.98 1540.76 1766.78 1542.09 Q1764.62 1543.43 1764.62 1546.11 Q1764.62 1548.14 1766.18 1549.32 Q1767.74 1550.47 1772.45 1551.52 L1774.46 1551.96 Q1780.69 1553.3 1783.3 1555.75 Q1785.95 1558.17 1785.95 1562.53 Q1785.95 1567.49 1782 1570.39 Q1778.08 1573.29 1771.21 1573.29 Q1768.34 1573.29 1765.22 1572.71 Q1762.14 1572.17 1758.7 1571.06 L1758.7 1565.01 Q1761.95 1566.7 1765.1 1567.56 Q1768.25 1568.39 1771.34 1568.39 Q1775.47 1568.39 1777.7 1566.98 Q1779.93 1565.55 1779.93 1562.97 Q1779.93 1560.59 1778.31 1559.31 Q1776.71 1558.04 1771.27 1556.86 L1769.24 1556.39 Q1763.79 1555.24 1761.37 1552.88 Q1758.95 1550.5 1758.95 1546.36 Q1758.95 1541.33 1762.52 1538.59 Q1766.08 1535.86 1772.64 1535.86 Q1775.89 1535.86 1778.75 1536.33 Q1781.62 1536.81 1784.04 1537.77 Z" fill="#000000" fill-rule="evenodd" fill-opacity="1" /><path clip-path="url(#clip940)" d="M1820.92 1538.08 L1820.92 1543.56 Q1818.44 1542.19 1815.93 1541.52 Q1813.45 1540.82 1810.9 1540.82 Q1805.2 1540.82 1802.05 1544.45 Q1798.9 1548.05 1798.9 1554.57 Q1798.9 1561.1 1802.05 1564.72 Q1805.2 1568.32 1810.9 1568.32 Q1813.45 1568.32 1815.93 1567.65 Q1818.44 1566.95 1820.92 1565.58 L1820.92 1571 Q1818.47 1572.14 1815.83 1572.71 Q1813.22 1573.29 1810.26 1573.29 Q1802.21 1573.29 1797.47 1568.23 Q1792.72 1563.17 1792.72 1554.57 Q1792.72 1545.85 1797.5 1540.85 Q1802.31 1535.86 1810.64 1535.86 Q1813.35 1535.86 1815.93 1536.43 Q1818.51 1536.97 1820.92 1538.08 Z" fill="#000000" fill-rule="evenodd" fill-opacity="1" /><path clip-path="url(#clip940)" d="M1847.31 1554.44 Q1840.21 1554.44 1837.48 1556.07 Q1834.74 1557.69 1834.74 1561.61 Q1834.74 1564.72 1836.78 1566.57 Q1838.84 1568.39 1842.38 1568.39 Q1847.25 1568.39 1850.18 1564.95 Q1853.14 1561.48 1853.14 1555.75 L1853.14 1554.44 L1847.31 1554.44 M1858.99 1552.03 L1858.99 1572.36 L1853.14 1572.36 L1853.14 1566.95 Q1851.13 1570.2 1848.14 1571.76 Q1845.15 1573.29 1840.82 1573.29 Q1835.34 1573.29 1832.1 1570.23 Q1828.88 1567.14 1828.88 1561.99 Q1828.88 1555.97 1832.89 1552.92 Q1836.93 1549.86 1844.92 1549.86 L1853.14 1549.86 L1853.14 1549.29 Q1853.14 1545.25 1850.46 1543.05 Q1847.82 1540.82 1843.01 1540.82 Q1839.96 1540.82 1837.06 1541.55 Q1834.17 1542.29 1831.49 1543.75 L1831.49 1538.34 Q1834.71 1537.1 1837.73 1536.49 Q1840.75 1535.86 1843.62 1535.86 Q1851.35 1535.86 1855.17 1539.87 Q1858.99 1543.88 1858.99 1552.03 Z" fill="#000000" fill-rule="evenodd" fill-opacity="1" /><path clip-path="url(#clip940)" d="M1871.05 1522.84 L1876.91 1522.84 L1876.91 1572.36 L1871.05 1572.36 L1871.05 1522.84 Z" fill="#000000" fill-rule="evenodd" fill-opacity="1" /><path clip-path="url(#clip940)" d="M1919.66 1553.08 L1919.66 1555.94 L1892.73 1555.94 Q1893.11 1561.99 1896.36 1565.17 Q1899.64 1568.32 1905.46 1568.32 Q1908.84 1568.32 1911.99 1567.49 Q1915.17 1566.67 1918.29 1565.01 L1918.29 1570.55 Q1915.14 1571.89 1911.83 1572.59 Q1908.52 1573.29 1905.11 1573.29 Q1896.58 1573.29 1891.58 1568.32 Q1886.62 1563.36 1886.62 1554.89 Q1886.62 1546.14 1891.33 1541.01 Q1896.07 1535.86 1904.09 1535.86 Q1911.29 1535.86 1915.46 1540.5 Q1919.66 1545.12 1919.66 1553.08 M1913.8 1551.36 Q1913.74 1546.55 1911.1 1543.69 Q1908.49 1540.82 1904.16 1540.82 Q1899.25 1540.82 1896.29 1543.59 Q1893.37 1546.36 1892.92 1551.39 L1913.8 1551.36 Z" fill="#000000" fill-rule="evenodd" fill-opacity="1" /><path clip-path="url(#clip940)" d="M1928.35 1522.9 L1933.44 1522.9 Q1938.21 1530.41 1940.57 1537.61 Q1942.96 1544.8 1942.96 1551.9 Q1942.96 1559.03 1940.57 1566.25 Q1938.21 1573.48 1933.44 1580.96 L1928.35 1580.96 Q1932.58 1573.67 1934.65 1566.48 Q1936.75 1559.25 1936.75 1551.9 Q1936.75 1544.55 1934.65 1537.38 Q1932.58 1530.22 1928.35 1522.9 Z" fill="#000000" fill-rule="evenodd" fill-opacity="1" /><polyline clip-path="url(#clip942)" style="stroke:#000000; stroke-linecap:butt; stroke-linejoin:round; stroke-width:2; stroke-opacity:0.1; fill:none" points="
  249.542,1414.54 2352.76,1414.54 
  "/>
<polyline clip-path="url(#clip942)" style="stroke:#000000; stroke-linecap:butt; stroke-linejoin:round; stroke-width:2; stroke-opacity:0.1; fill:none" points="
  249.542,1103.79 2352.76,1103.79 
  "/>
<polyline clip-path="url(#clip942)" style="stroke:#000000; stroke-linecap:butt; stroke-linejoin:round; stroke-width:2; stroke-opacity:0.1; fill:none" points="
  249.542,793.042 2352.76,793.042 
  "/>
<polyline clip-path="url(#clip942)" style="stroke:#000000; stroke-linecap:butt; stroke-linejoin:round; stroke-width:2; stroke-opacity:0.1; fill:none" points="
  249.542,482.293 2352.76,482.293 
  "/>
<polyline clip-path="url(#clip942)" style="stroke:#000000; stroke-linecap:butt; stroke-linejoin:round; stroke-width:2; stroke-opacity:0.1; fill:none" points="
  249.542,171.544 2352.76,171.544 
  "/>
<polyline clip-path="url(#clip940)" style="stroke:#000000; stroke-linecap:butt; stroke-linejoin:round; stroke-width:4; stroke-opacity:1; fill:none" points="
  249.542,1414.54 249.542,47.2441 
  "/>
<polyline clip-path="url(#clip940)" style="stroke:#000000; stroke-linecap:butt; stroke-linejoin:round; stroke-width:4; stroke-opacity:1; fill:none" points="
  249.542,1414.54 268.44,1414.54 
  "/>
<polyline clip-path="url(#clip940)" style="stroke:#000000; stroke-linecap:butt; stroke-linejoin:round; stroke-width:4; stroke-opacity:1; fill:none" points="
  249.542,1103.79 268.44,1103.79 
  "/>
<polyline clip-path="url(#clip940)" style="stroke:#000000; stroke-linecap:butt; stroke-linejoin:round; stroke-width:4; stroke-opacity:1; fill:none" points="
  249.542,793.042 268.44,793.042 
  "/>
<polyline clip-path="url(#clip940)" style="stroke:#000000; stroke-linecap:butt; stroke-linejoin:round; stroke-width:4; stroke-opacity:1; fill:none" points="
  249.542,482.293 268.44,482.293 
  "/>
<polyline clip-path="url(#clip940)" style="stroke:#000000; stroke-linecap:butt; stroke-linejoin:round; stroke-width:4; stroke-opacity:1; fill:none" points="
  249.542,171.544 268.44,171.544 
  "/>
<path clip-path="url(#clip940)" d="M126.205 1400.34 Q122.593 1400.34 120.765 1403.9 Q118.959 1407.44 118.959 1414.57 Q118.959 1421.68 120.765 1425.25 Q122.593 1428.79 126.205 1428.79 Q129.839 1428.79 131.644 1425.25 Q133.473 1421.68 133.473 1414.57 Q133.473 1407.44 131.644 1403.9 Q129.839 1400.34 126.205 1400.34 M126.205 1396.63 Q132.015 1396.63 135.07 1401.24 Q138.149 1405.82 138.149 1414.57 Q138.149 1423.3 135.07 1427.91 Q132.015 1432.49 126.205 1432.49 Q120.394 1432.49 117.316 1427.91 Q114.26 1423.3 114.26 1414.57 Q114.26 1405.82 117.316 1401.24 Q120.394 1396.63 126.205 1396.63 Z" fill="#000000" fill-rule="evenodd" fill-opacity="1" /><path clip-path="url(#clip940)" d="M146.366 1425.94 L151.251 1425.94 L151.251 1431.82 L146.366 1431.82 L146.366 1425.94 Z" fill="#000000" fill-rule="evenodd" fill-opacity="1" /><path clip-path="url(#clip940)" d="M171.436 1400.34 Q167.825 1400.34 165.996 1403.9 Q164.19 1407.44 164.19 1414.57 Q164.19 1421.68 165.996 1425.25 Q167.825 1428.79 171.436 1428.79 Q175.07 1428.79 176.876 1425.25 Q178.704 1421.68 178.704 1414.57 Q178.704 1407.44 176.876 1403.9 Q175.07 1400.34 171.436 1400.34 M171.436 1396.63 Q177.246 1396.63 180.301 1401.24 Q183.38 1405.82 183.38 1414.57 Q183.38 1423.3 180.301 1427.91 Q177.246 1432.49 171.436 1432.49 Q165.626 1432.49 162.547 1427.91 Q159.491 1423.3 159.491 1414.57 Q159.491 1405.82 162.547 1401.24 Q165.626 1396.63 171.436 1396.63 Z" fill="#000000" fill-rule="evenodd" fill-opacity="1" /><path clip-path="url(#clip940)" d="M201.598 1400.34 Q197.987 1400.34 196.158 1403.9 Q194.352 1407.44 194.352 1414.57 Q194.352 1421.68 196.158 1425.25 Q197.987 1428.79 201.598 1428.79 Q205.232 1428.79 207.037 1425.25 Q208.866 1421.68 208.866 1414.57 Q208.866 1407.44 207.037 1403.9 Q205.232 1400.34 201.598 1400.34 M201.598 1396.63 Q207.408 1396.63 210.463 1401.24 Q213.542 1405.82 213.542 1414.57 Q213.542 1423.3 210.463 1427.91 Q207.408 1432.49 201.598 1432.49 Q195.787 1432.49 192.709 1427.91 Q189.653 1423.3 189.653 1414.57 Q189.653 1405.82 192.709 1401.24 Q195.787 1396.63 201.598 1396.63 Z" fill="#000000" fill-rule="evenodd" fill-opacity="1" /><path clip-path="url(#clip940)" d="M127.2 1089.59 Q123.589 1089.59 121.76 1093.15 Q119.955 1096.7 119.955 1103.83 Q119.955 1110.93 121.76 1114.5 Q123.589 1118.04 127.2 1118.04 Q130.834 1118.04 132.64 1114.5 Q134.468 1110.93 134.468 1103.83 Q134.468 1096.7 132.64 1093.15 Q130.834 1089.59 127.2 1089.59 M127.2 1085.89 Q133.01 1085.89 136.066 1090.49 Q139.144 1095.08 139.144 1103.83 Q139.144 1112.55 136.066 1117.16 Q133.01 1121.74 127.2 1121.74 Q121.39 1121.74 118.311 1117.16 Q115.256 1112.55 115.256 1103.83 Q115.256 1095.08 118.311 1090.49 Q121.39 1085.89 127.2 1085.89 Z" fill="#000000" fill-rule="evenodd" fill-opacity="1" /><path clip-path="url(#clip940)" d="M147.362 1115.19 L152.246 1115.19 L152.246 1121.07 L147.362 1121.07 L147.362 1115.19 Z" fill="#000000" fill-rule="evenodd" fill-opacity="1" /><path clip-path="url(#clip940)" d="M166.459 1117.14 L182.778 1117.14 L182.778 1121.07 L160.834 1121.07 L160.834 1117.14 Q163.496 1114.38 168.079 1109.75 Q172.686 1105.1 173.866 1103.76 Q176.112 1101.23 176.991 1099.5 Q177.894 1097.74 177.894 1096.05 Q177.894 1093.29 175.95 1091.56 Q174.028 1089.82 170.927 1089.82 Q168.727 1089.82 166.274 1090.58 Q163.843 1091.35 161.065 1092.9 L161.065 1088.18 Q163.89 1087.04 166.343 1086.46 Q168.797 1085.89 170.834 1085.89 Q176.204 1085.89 179.399 1088.57 Q182.593 1091.26 182.593 1095.75 Q182.593 1097.88 181.783 1099.8 Q180.996 1101.7 178.889 1104.29 Q178.311 1104.96 175.209 1108.18 Q172.107 1111.37 166.459 1117.14 Z" fill="#000000" fill-rule="evenodd" fill-opacity="1" /><path clip-path="url(#clip940)" d="M192.639 1086.51 L210.996 1086.51 L210.996 1090.45 L196.922 1090.45 L196.922 1098.92 Q197.94 1098.57 198.959 1098.41 Q199.977 1098.22 200.996 1098.22 Q206.783 1098.22 210.162 1101.39 Q213.542 1104.57 213.542 1109.98 Q213.542 1115.56 210.07 1118.66 Q206.598 1121.74 200.278 1121.74 Q198.102 1121.74 195.834 1121.37 Q193.588 1121 191.181 1120.26 L191.181 1115.56 Q193.264 1116.7 195.487 1117.25 Q197.709 1117.81 200.186 1117.81 Q204.19 1117.81 206.528 1115.7 Q208.866 1113.59 208.866 1109.98 Q208.866 1106.37 206.528 1104.27 Q204.19 1102.16 200.186 1102.16 Q198.311 1102.16 196.436 1102.58 Q194.584 1102.99 192.639 1103.87 L192.639 1086.51 Z" fill="#000000" fill-rule="evenodd" fill-opacity="1" /><path clip-path="url(#clip940)" d="M126.205 778.84 Q122.593 778.84 120.765 782.405 Q118.959 785.947 118.959 793.076 Q118.959 800.183 120.765 803.748 Q122.593 807.289 126.205 807.289 Q129.839 807.289 131.644 803.748 Q133.473 800.183 133.473 793.076 Q133.473 785.947 131.644 782.405 Q129.839 778.84 126.205 778.84 M126.205 775.137 Q132.015 775.137 135.07 779.743 Q138.149 784.327 138.149 793.076 Q138.149 801.803 135.07 806.41 Q132.015 810.993 126.205 810.993 Q120.394 810.993 117.316 806.41 Q114.26 801.803 114.26 793.076 Q114.26 784.327 117.316 779.743 Q120.394 775.137 126.205 775.137 Z" fill="#000000" fill-rule="evenodd" fill-opacity="1" /><path clip-path="url(#clip940)" d="M146.366 804.442 L151.251 804.442 L151.251 810.322 L146.366 810.322 L146.366 804.442 Z" fill="#000000" fill-rule="evenodd" fill-opacity="1" /><path clip-path="url(#clip940)" d="M161.482 775.762 L179.839 775.762 L179.839 779.697 L165.765 779.697 L165.765 788.169 Q166.783 787.822 167.802 787.66 Q168.82 787.475 169.839 787.475 Q175.626 787.475 179.005 790.646 Q182.385 793.817 182.385 799.234 Q182.385 804.813 178.913 807.914 Q175.44 810.993 169.121 810.993 Q166.945 810.993 164.677 810.623 Q162.431 810.252 160.024 809.512 L160.024 804.813 Q162.107 805.947 164.329 806.502 Q166.552 807.058 169.028 807.058 Q173.033 807.058 175.371 804.951 Q177.709 802.845 177.709 799.234 Q177.709 795.623 175.371 793.516 Q173.033 791.41 169.028 791.41 Q167.153 791.41 165.278 791.827 Q163.427 792.243 161.482 793.123 L161.482 775.762 Z" fill="#000000" fill-rule="evenodd" fill-opacity="1" /><path clip-path="url(#clip940)" d="M201.598 778.84 Q197.987 778.84 196.158 782.405 Q194.352 785.947 194.352 793.076 Q194.352 800.183 196.158 803.748 Q197.987 807.289 201.598 807.289 Q205.232 807.289 207.037 803.748 Q208.866 800.183 208.866 793.076 Q208.866 785.947 207.037 782.405 Q205.232 778.84 201.598 778.84 M201.598 775.137 Q207.408 775.137 210.463 779.743 Q213.542 784.327 213.542 793.076 Q213.542 801.803 210.463 806.41 Q207.408 810.993 201.598 810.993 Q195.787 810.993 192.709 806.41 Q189.653 801.803 189.653 793.076 Q189.653 784.327 192.709 779.743 Q195.787 775.137 201.598 775.137 Z" fill="#000000" fill-rule="evenodd" fill-opacity="1" /><path clip-path="url(#clip940)" d="M127.2 468.091 Q123.589 468.091 121.76 471.656 Q119.955 475.198 119.955 482.327 Q119.955 489.434 121.76 492.999 Q123.589 496.54 127.2 496.54 Q130.834 496.54 132.64 492.999 Q134.468 489.434 134.468 482.327 Q134.468 475.198 132.64 471.656 Q130.834 468.091 127.2 468.091 M127.2 464.388 Q133.01 464.388 136.066 468.994 Q139.144 473.578 139.144 482.327 Q139.144 491.054 136.066 495.661 Q133.01 500.244 127.2 500.244 Q121.39 500.244 118.311 495.661 Q115.256 491.054 115.256 482.327 Q115.256 473.578 118.311 468.994 Q121.39 464.388 127.2 464.388 Z" fill="#000000" fill-rule="evenodd" fill-opacity="1" /><path clip-path="url(#clip940)" d="M147.362 493.693 L152.246 493.693 L152.246 499.573 L147.362 499.573 L147.362 493.693 Z" fill="#000000" fill-rule="evenodd" fill-opacity="1" /><path clip-path="url(#clip940)" d="M161.251 465.013 L183.473 465.013 L183.473 467.003 L170.927 499.573 L166.042 499.573 L177.848 468.948 L161.251 468.948 L161.251 465.013 Z" fill="#000000" fill-rule="evenodd" fill-opacity="1" /><path clip-path="url(#clip940)" d="M192.639 465.013 L210.996 465.013 L210.996 468.948 L196.922 468.948 L196.922 477.42 Q197.94 477.073 198.959 476.911 Q199.977 476.726 200.996 476.726 Q206.783 476.726 210.162 479.897 Q213.542 483.068 213.542 488.485 Q213.542 494.064 210.07 497.165 Q206.598 500.244 200.278 500.244 Q198.102 500.244 195.834 499.874 Q193.588 499.503 191.181 498.763 L191.181 494.064 Q193.264 495.198 195.487 495.753 Q197.709 496.309 200.186 496.309 Q204.19 496.309 206.528 494.202 Q208.866 492.096 208.866 488.485 Q208.866 484.874 206.528 482.767 Q204.19 480.661 200.186 480.661 Q198.311 480.661 196.436 481.077 Q194.584 481.494 192.639 482.374 L192.639 465.013 Z" fill="#000000" fill-rule="evenodd" fill-opacity="1" /><path clip-path="url(#clip940)" d="M117.015 184.889 L124.654 184.889 L124.654 158.523 L116.343 160.19 L116.343 155.93 L124.607 154.264 L129.283 154.264 L129.283 184.889 L136.922 184.889 L136.922 188.824 L117.015 188.824 L117.015 184.889 Z" fill="#000000" fill-rule="evenodd" fill-opacity="1" /><path clip-path="url(#clip940)" d="M146.366 182.944 L151.251 182.944 L151.251 188.824 L146.366 188.824 L146.366 182.944 Z" fill="#000000" fill-rule="evenodd" fill-opacity="1" /><path clip-path="url(#clip940)" d="M171.436 157.342 Q167.825 157.342 165.996 160.907 Q164.19 164.449 164.19 171.578 Q164.19 178.685 165.996 182.25 Q167.825 185.791 171.436 185.791 Q175.07 185.791 176.876 182.25 Q178.704 178.685 178.704 171.578 Q178.704 164.449 176.876 160.907 Q175.07 157.342 171.436 157.342 M171.436 153.639 Q177.246 153.639 180.301 158.245 Q183.38 162.828 183.38 171.578 Q183.38 180.305 180.301 184.912 Q177.246 189.495 171.436 189.495 Q165.626 189.495 162.547 184.912 Q159.491 180.305 159.491 171.578 Q159.491 162.828 162.547 158.245 Q165.626 153.639 171.436 153.639 Z" fill="#000000" fill-rule="evenodd" fill-opacity="1" /><path clip-path="url(#clip940)" d="M201.598 157.342 Q197.987 157.342 196.158 160.907 Q194.352 164.449 194.352 171.578 Q194.352 178.685 196.158 182.25 Q197.987 185.791 201.598 185.791 Q205.232 185.791 207.037 182.25 Q208.866 178.685 208.866 171.578 Q208.866 164.449 207.037 160.907 Q205.232 157.342 201.598 157.342 M201.598 153.639 Q207.408 153.639 210.463 158.245 Q213.542 162.828 213.542 171.578 Q213.542 180.305 210.463 184.912 Q207.408 189.495 201.598 189.495 Q195.787 189.495 192.709 184.912 Q189.653 180.305 189.653 171.578 Q189.653 162.828 192.709 158.245 Q195.787 153.639 201.598 153.639 Z" fill="#000000" fill-rule="evenodd" fill-opacity="1" /><path clip-path="url(#clip940)" d="M21.7677 1091.81 L39.6235 1091.81 L39.6235 1083.73 Q39.6235 1079.24 37.3 1076.79 Q34.9765 1074.34 30.6797 1074.34 Q26.4147 1074.34 24.0912 1076.79 Q21.7677 1079.24 21.7677 1083.73 L21.7677 1091.81 M16.4842 1098.24 L16.4842 1083.73 Q16.4842 1075.74 20.1126 1071.66 Q23.7092 1067.56 30.6797 1067.56 Q37.7138 1067.56 41.3104 1071.66 Q44.907 1075.74 44.907 1083.73 L44.907 1091.81 L64.0042 1091.81 L64.0042 1098.24 L16.4842 1098.24 Z" fill="#000000" fill-rule="evenodd" fill-opacity="1" /><path clip-path="url(#clip940)" d="M33.8307 1039.68 Q33.2578 1040.66 33.0032 1041.84 Q32.7167 1042.99 32.7167 1044.39 Q32.7167 1049.35 35.9632 1052.03 Q39.1779 1054.67 45.2253 1054.67 L64.0042 1054.67 L64.0042 1060.56 L28.3562 1060.56 L28.3562 1054.67 L33.8944 1054.67 Q30.6479 1052.82 29.0883 1049.86 Q27.4968 1046.9 27.4968 1042.67 Q27.4968 1042.06 27.5923 1041.33 Q27.656 1040.6 27.8151 1039.71 L33.8307 1039.68 Z" fill="#000000" fill-rule="evenodd" fill-opacity="1" /><path clip-path="url(#clip940)" d="M32.4621 1021.15 Q32.4621 1025.86 36.1542 1028.6 Q39.8145 1031.34 46.212 1031.34 Q52.6095 1031.34 56.3017 1028.63 Q59.9619 1025.89 59.9619 1021.15 Q59.9619 1016.47 56.2698 1013.74 Q52.5777 1011 46.212 1011 Q39.8781 1011 36.186 1013.74 Q32.4621 1016.47 32.4621 1021.15 M27.4968 1021.15 Q27.4968 1013.51 32.4621 1009.15 Q37.4273 1004.79 46.212 1004.79 Q54.9649 1004.79 59.9619 1009.15 Q64.9272 1013.51 64.9272 1021.15 Q64.9272 1028.82 59.9619 1033.18 Q54.9649 1037.51 46.212 1037.51 Q37.4273 1037.51 32.4621 1033.18 Q27.4968 1028.82 27.4968 1021.15 Z" fill="#000000" fill-rule="evenodd" fill-opacity="1" /><path clip-path="url(#clip940)" d="M58.657 989.419 L77.5631 989.419 L77.5631 995.308 L28.3562 995.308 L28.3562 989.419 L33.7671 989.419 Q30.5842 987.573 29.0564 984.772 Q27.4968 981.94 27.4968 978.025 Q27.4968 971.532 32.6531 967.489 Q37.8093 963.415 46.212 963.415 Q54.6147 963.415 59.771 967.489 Q64.9272 971.532 64.9272 978.025 Q64.9272 981.94 63.3994 984.772 Q61.8398 987.573 58.657 989.419 M46.212 969.495 Q39.7508 969.495 36.0905 972.168 Q32.3984 974.81 32.3984 979.457 Q32.3984 984.104 36.0905 986.777 Q39.7508 989.419 46.212 989.419 Q52.6732 989.419 56.3653 986.777 Q60.0256 984.104 60.0256 979.457 Q60.0256 974.81 56.3653 972.168 Q52.6732 969.495 46.212 969.495 Z" fill="#000000" fill-rule="evenodd" fill-opacity="1" /><path clip-path="url(#clip940)" d="M32.4621 939.894 Q32.4621 944.605 36.1542 947.342 Q39.8145 950.079 46.212 950.079 Q52.6095 950.079 56.3017 947.374 Q59.9619 944.636 59.9619 939.894 Q59.9619 935.215 56.2698 932.478 Q52.5777 929.741 46.212 929.741 Q39.8781 929.741 36.186 932.478 Q32.4621 935.215 32.4621 939.894 M27.4968 939.894 Q27.4968 932.255 32.4621 927.895 Q37.4273 923.534 46.212 923.534 Q54.9649 923.534 59.9619 927.895 Q64.9272 932.255 64.9272 939.894 Q64.9272 947.565 59.9619 951.925 Q54.9649 956.254 46.212 956.254 Q37.4273 956.254 32.4621 951.925 Q27.4968 947.565 27.4968 939.894 Z" fill="#000000" fill-rule="evenodd" fill-opacity="1" /><path clip-path="url(#clip940)" d="M33.8307 893.17 Q33.2578 894.156 33.0032 895.334 Q32.7167 896.48 32.7167 897.88 Q32.7167 902.846 35.9632 905.519 Q39.1779 908.161 45.2253 908.161 L64.0042 908.161 L64.0042 914.049 L28.3562 914.049 L28.3562 908.161 L33.8944 908.161 Q30.6479 906.315 29.0883 903.355 Q27.4968 900.395 27.4968 896.162 Q27.4968 895.557 27.5923 894.825 Q27.656 894.093 27.8151 893.202 L33.8307 893.17 Z" fill="#000000" fill-rule="evenodd" fill-opacity="1" /><path clip-path="url(#clip940)" d="M18.2347 881.234 L28.3562 881.234 L28.3562 869.171 L32.9077 869.171 L32.9077 881.234 L52.2594 881.234 Q56.6199 881.234 57.8613 880.056 Q59.1026 878.847 59.1026 875.187 L59.1026 869.171 L64.0042 869.171 L64.0042 875.187 Q64.0042 881.966 61.4897 884.544 Q58.9434 887.122 52.2594 887.122 L32.9077 887.122 L32.9077 891.419 L28.3562 891.419 L28.3562 887.122 L18.2347 887.122 L18.2347 881.234 Z" fill="#000000" fill-rule="evenodd" fill-opacity="1" /><path clip-path="url(#clip940)" d="M28.3562 861.469 L28.3562 855.612 L64.0042 855.612 L64.0042 861.469 L28.3562 861.469 M14.479 861.469 L14.479 855.612 L21.895 855.612 L21.895 861.469 L14.479 861.469 Z" fill="#000000" fill-rule="evenodd" fill-opacity="1" /><path clip-path="url(#clip940)" d="M32.4621 829.545 Q32.4621 834.255 36.1542 836.992 Q39.8145 839.73 46.212 839.73 Q52.6095 839.73 56.3017 837.024 Q59.9619 834.287 59.9619 829.545 Q59.9619 824.866 56.2698 822.128 Q52.5777 819.391 46.212 819.391 Q39.8781 819.391 36.186 822.128 Q32.4621 824.866 32.4621 829.545 M27.4968 829.545 Q27.4968 821.906 32.4621 817.545 Q37.4273 813.185 46.212 813.185 Q54.9649 813.185 59.9619 817.545 Q64.9272 821.906 64.9272 829.545 Q64.9272 837.215 59.9619 841.576 Q54.9649 845.904 46.212 845.904 Q37.4273 845.904 32.4621 841.576 Q27.4968 837.215 27.4968 829.545 Z" fill="#000000" fill-rule="evenodd" fill-opacity="1" /><path clip-path="url(#clip940)" d="M42.4881 773.845 L64.0042 773.845 L64.0042 779.701 L42.679 779.701 Q37.6183 779.701 35.1038 781.674 Q32.5894 783.648 32.5894 787.595 Q32.5894 792.337 35.6131 795.074 Q38.6368 797.811 43.8567 797.811 L64.0042 797.811 L64.0042 803.7 L28.3562 803.7 L28.3562 797.811 L33.8944 797.811 Q30.6797 795.711 29.0883 792.878 Q27.4968 790.013 27.4968 786.29 Q27.4968 780.147 31.3163 776.996 Q35.1038 773.845 42.4881 773.845 Z" fill="#000000" fill-rule="evenodd" fill-opacity="1" /><path clip-path="url(#clip940)" d="M32.4621 727.63 Q32.4621 732.34 36.1542 735.077 Q39.8145 737.815 46.212 737.815 Q52.6095 737.815 56.3017 735.109 Q59.9619 732.372 59.9619 727.63 Q59.9619 722.951 56.2698 720.213 Q52.5777 717.476 46.212 717.476 Q39.8781 717.476 36.186 720.213 Q32.4621 722.951 32.4621 727.63 M27.4968 727.63 Q27.4968 719.991 32.4621 715.63 Q37.4273 711.27 46.212 711.27 Q54.9649 711.27 59.9619 715.63 Q64.9272 719.991 64.9272 727.63 Q64.9272 735.3 59.9619 739.661 Q54.9649 743.989 46.212 743.989 Q37.4273 743.989 32.4621 739.661 Q27.4968 735.3 27.4968 727.63 Z" fill="#000000" fill-rule="evenodd" fill-opacity="1" /><path clip-path="url(#clip940)" d="M14.479 683.515 L19.3487 683.515 L19.3487 689.117 Q19.3487 692.268 20.6219 693.509 Q21.895 694.719 25.2052 694.719 L28.3562 694.719 L28.3562 685.075 L32.9077 685.075 L32.9077 694.719 L64.0042 694.719 L64.0042 700.607 L32.9077 700.607 L32.9077 706.209 L28.3562 706.209 L28.3562 700.607 L25.8736 700.607 Q19.9216 700.607 17.2162 697.838 Q14.479 695.069 14.479 689.053 L14.479 683.515 Z" fill="#000000" fill-rule="evenodd" fill-opacity="1" /><path clip-path="url(#clip940)" d="M58.657 652.228 L77.5631 652.228 L77.5631 658.116 L28.3562 658.116 L28.3562 652.228 L33.7671 652.228 Q30.5842 650.382 29.0564 647.581 Q27.4968 644.748 27.4968 640.833 Q27.4968 634.34 32.6531 630.298 Q37.8093 626.224 46.212 626.224 Q54.6147 626.224 59.771 630.298 Q64.9272 634.34 64.9272 640.833 Q64.9272 644.748 63.3994 647.581 Q61.8398 650.382 58.657 652.228 M46.212 632.303 Q39.7508 632.303 36.0905 634.977 Q32.3984 637.618 32.3984 642.265 Q32.3984 646.912 36.0905 649.586 Q39.7508 652.228 46.212 652.228 Q52.6732 652.228 56.3653 649.586 Q60.0256 646.912 60.0256 642.265 Q60.0256 637.618 56.3653 634.977 Q52.6732 632.303 46.212 632.303 Z" fill="#000000" fill-rule="evenodd" fill-opacity="1" /><path clip-path="url(#clip940)" d="M33.8307 595.859 Q33.2578 596.846 33.0032 598.024 Q32.7167 599.17 32.7167 600.57 Q32.7167 605.535 35.9632 608.209 Q39.1779 610.851 45.2253 610.851 L64.0042 610.851 L64.0042 616.739 L28.3562 616.739 L28.3562 610.851 L33.8944 610.851 Q30.6479 609.005 29.0883 606.045 Q27.4968 603.084 27.4968 598.851 Q27.4968 598.247 27.5923 597.515 Q27.656 596.782 27.8151 595.891 L33.8307 595.859 Z" fill="#000000" fill-rule="evenodd" fill-opacity="1" /><path clip-path="url(#clip940)" d="M32.4621 577.335 Q32.4621 582.046 36.1542 584.783 Q39.8145 587.52 46.212 587.52 Q52.6095 587.52 56.3017 584.815 Q59.9619 582.078 59.9619 577.335 Q59.9619 572.656 56.2698 569.919 Q52.5777 567.182 46.212 567.182 Q39.8781 567.182 36.186 569.919 Q32.4621 572.656 32.4621 577.335 M27.4968 577.335 Q27.4968 569.696 32.4621 565.336 Q37.4273 560.975 46.212 560.975 Q54.9649 560.975 59.9619 565.336 Q64.9272 569.696 64.9272 577.335 Q64.9272 585.006 59.9619 589.366 Q54.9649 593.695 46.212 593.695 Q37.4273 593.695 32.4621 589.366 Q27.4968 585.006 27.4968 577.335 Z" fill="#000000" fill-rule="evenodd" fill-opacity="1" /><path clip-path="url(#clip940)" d="M46.212 525.678 Q39.7508 525.678 36.0905 528.351 Q32.3984 530.993 32.3984 535.64 Q32.3984 540.287 36.0905 542.96 Q39.7508 545.602 46.212 545.602 Q52.6732 545.602 56.3653 542.96 Q60.0256 540.287 60.0256 535.64 Q60.0256 530.993 56.3653 528.351 Q52.6732 525.678 46.212 525.678 M33.7671 545.602 Q30.5842 543.756 29.0564 540.955 Q27.4968 538.122 27.4968 534.208 Q27.4968 527.715 32.6531 523.672 Q37.8093 519.598 46.212 519.598 Q54.6147 519.598 59.771 523.672 Q64.9272 527.715 64.9272 534.208 Q64.9272 538.122 63.3994 540.955 Q61.8398 543.756 58.657 545.602 L64.0042 545.602 L64.0042 551.49 L14.479 551.49 L14.479 545.602 L33.7671 545.602 Z" fill="#000000" fill-rule="evenodd" fill-opacity="1" /><path clip-path="url(#clip940)" d="M14.479 509.891 L14.479 504.034 L64.0042 504.034 L64.0042 509.891 L14.479 509.891 Z" fill="#000000" fill-rule="evenodd" fill-opacity="1" /><path clip-path="url(#clip940)" d="M44.7161 461.288 L47.5806 461.288 L47.5806 488.215 Q53.6281 487.833 56.8109 484.587 Q59.9619 481.309 59.9619 475.484 Q59.9619 472.11 59.1344 468.959 Q58.3069 465.776 56.6518 462.657 L62.1899 462.657 Q63.5267 465.808 64.227 469.118 Q64.9272 472.428 64.9272 475.834 Q64.9272 484.364 59.9619 489.361 Q54.9967 494.326 46.5303 494.326 Q37.7774 494.326 32.6531 489.616 Q27.4968 484.873 27.4968 476.853 Q27.4968 469.659 32.1438 465.49 Q36.7589 461.288 44.7161 461.288 M42.9973 467.145 Q38.1912 467.208 35.3266 469.85 Q32.4621 472.46 32.4621 476.789 Q32.4621 481.69 35.2312 484.651 Q38.0002 487.579 43.0292 488.024 L42.9973 467.145 Z" fill="#000000" fill-rule="evenodd" fill-opacity="1" /><path clip-path="url(#clip940)" d="M35.1993 423.922 Q31.2526 421.726 29.3747 418.67 Q27.4968 415.614 27.4968 411.477 Q27.4968 405.907 31.4117 402.883 Q35.2948 399.859 42.4881 399.859 L64.0042 399.859 L64.0042 405.748 L42.679 405.748 Q37.5546 405.748 35.072 407.562 Q32.5894 409.376 32.5894 413.1 Q32.5894 417.651 35.6131 420.293 Q38.6368 422.935 43.8567 422.935 L64.0042 422.935 L64.0042 428.823 L42.679 428.823 Q37.5228 428.823 35.072 430.638 Q32.5894 432.452 32.5894 436.239 Q32.5894 440.727 35.6449 443.369 Q38.6686 446.011 43.8567 446.011 L64.0042 446.011 L64.0042 451.899 L28.3562 451.899 L28.3562 446.011 L33.8944 446.011 Q30.616 444.005 29.0564 441.205 Q27.4968 438.404 27.4968 434.552 Q27.4968 430.669 29.4702 427.964 Q31.4436 425.227 35.1993 423.922 Z" fill="#000000" fill-rule="evenodd" fill-opacity="1" /><path clip-path="url(#clip940)" d="M29.4065 365.453 L34.9447 365.453 Q33.6716 367.935 33.035 370.609 Q32.3984 373.282 32.3984 376.147 Q32.3984 380.508 33.7352 382.704 Q35.072 384.868 37.7456 384.868 Q39.7826 384.868 40.9603 383.308 Q42.1061 381.749 43.1565 377.038 L43.6021 375.033 Q44.9389 368.795 47.3897 366.185 Q49.8086 363.543 54.1691 363.543 Q59.1344 363.543 62.0308 367.49 Q64.9272 371.405 64.9272 378.28 Q64.9272 381.144 64.3543 384.263 Q63.8132 387.351 62.6992 390.788 L56.6518 390.788 Q58.3387 387.542 59.198 384.391 Q60.0256 381.24 60.0256 378.152 Q60.0256 374.015 58.6251 371.787 Q57.1929 369.559 54.6147 369.559 Q52.2276 369.559 50.9545 371.182 Q49.6813 372.773 48.5037 378.216 L48.0262 380.253 Q46.8804 385.696 44.5251 388.115 Q42.138 390.534 38.0002 390.534 Q32.9713 390.534 30.2341 386.969 Q27.4968 383.404 27.4968 376.847 Q27.4968 373.601 27.9743 370.736 Q28.4517 367.872 29.4065 365.453 Z" fill="#000000" fill-rule="evenodd" fill-opacity="1" /><polyline clip-path="url(#clip942)" style="stroke:#009af9; stroke-linecap:butt; stroke-linejoin:round; stroke-width:4; stroke-opacity:1; fill:none" points="
  249.542,1165.94 409.445,1165.94 409.445,1041.64 714.75,1041.64 714.75,917.341 993.386,917.341 993.386,793.042 1229.24,793.042 1229.24,668.742 2161.55,668.742 
  2161.55,544.443 4073.57,544.443 4073.57,47.2441 
  "/>
<polyline clip-path="url(#clip942)" style="stroke:#e26f46; stroke-linecap:butt; stroke-linejoin:round; stroke-width:4; stroke-opacity:1; fill:none" points="
  249.542,793.042 701.945,793.042 701.945,668.742 1151.5,668.742 1151.5,544.443 4073.57,544.443 4073.57,47.2441 
  "/>
<polyline clip-path="url(#clip942)" style="stroke:#3da44d; stroke-linecap:butt; stroke-linejoin:round; stroke-width:4; stroke-opacity:1; fill:none" points="
  249.542,1041.64 541.528,1041.64 541.528,917.341 701.214,917.341 701.214,793.042 734.091,793.042 734.091,668.742 882.735,668.742 882.735,544.443 1148.06,544.443 
  1148.06,420.143 2001,420.143 2001,295.843 4073.57,295.843 4073.57,47.2441 
  "/>
<path clip-path="url(#clip940)" d="
M1875.33 300.181 L2282.65 300.181 L2282.65 92.8206 L1875.33 92.8206  Z
  " fill="#ffffff" fill-rule="evenodd" fill-opacity="1"/>
<polyline clip-path="url(#clip940)" style="stroke:#000000; stroke-linecap:butt; stroke-linejoin:round; stroke-width:4; stroke-opacity:1; fill:none" points="
  1875.33,300.181 2282.65,300.181 2282.65,92.8206 1875.33,92.8206 1875.33,300.181 
  "/>
<polyline clip-path="url(#clip940)" style="stroke:#009af9; stroke-linecap:butt; stroke-linejoin:round; stroke-width:4; stroke-opacity:1; fill:none" points="
  1898.69,144.661 2038.91,144.661 
  "/>
<path clip-path="url(#clip940)" d="M2075.68 148.908 Q2070.52 148.908 2068.53 150.089 Q2066.54 151.269 2066.54 154.117 Q2066.54 156.385 2068.02 157.728 Q2069.52 159.047 2072.09 159.047 Q2075.63 159.047 2077.76 156.547 Q2079.92 154.024 2079.92 149.857 L2079.92 148.908 L2075.68 148.908 M2084.18 147.149 L2084.18 161.941 L2079.92 161.941 L2079.92 158.005 Q2078.46 160.367 2076.28 161.501 Q2074.11 162.612 2070.96 162.612 Q2066.98 162.612 2064.62 160.39 Q2062.28 158.144 2062.28 154.394 Q2062.28 150.019 2065.19 147.797 Q2068.13 145.575 2073.94 145.575 L2079.92 145.575 L2079.92 145.158 Q2079.92 142.219 2077.97 140.621 Q2076.05 139.001 2072.56 139.001 Q2070.33 139.001 2068.23 139.533 Q2066.12 140.066 2064.18 141.131 L2064.18 137.195 Q2066.51 136.293 2068.71 135.853 Q2070.91 135.39 2072.99 135.39 Q2078.62 135.39 2081.4 138.306 Q2084.18 141.223 2084.18 147.149 Z" fill="#000000" fill-rule="evenodd" fill-opacity="1" /><path clip-path="url(#clip940)" d="M2092.95 125.922 L2097.21 125.922 L2097.21 161.941 L2092.95 161.941 L2092.95 125.922 Z" fill="#000000" fill-rule="evenodd" fill-opacity="1" /><path clip-path="url(#clip940)" d="M2110.24 158.052 L2110.24 171.802 L2105.96 171.802 L2105.96 136.015 L2110.24 136.015 L2110.24 139.95 Q2111.58 137.635 2113.62 136.524 Q2115.68 135.39 2118.53 135.39 Q2123.25 135.39 2126.19 139.14 Q2129.15 142.89 2129.15 149.001 Q2129.15 155.112 2126.19 158.862 Q2123.25 162.612 2118.53 162.612 Q2115.68 162.612 2113.62 161.501 Q2111.58 160.367 2110.24 158.052 M2124.73 149.001 Q2124.73 144.302 2122.79 141.64 Q2120.87 138.955 2117.49 138.955 Q2114.11 138.955 2112.16 141.64 Q2110.24 144.302 2110.24 149.001 Q2110.24 153.7 2112.16 156.385 Q2114.11 159.047 2117.49 159.047 Q2120.87 159.047 2122.79 156.385 Q2124.73 153.7 2124.73 149.001 Z" fill="#000000" fill-rule="evenodd" fill-opacity="1" /><path clip-path="url(#clip940)" d="M2157.76 146.293 L2157.76 161.941 L2153.5 161.941 L2153.5 146.431 Q2153.5 142.751 2152.07 140.922 Q2150.63 139.094 2147.76 139.094 Q2144.31 139.094 2142.32 141.293 Q2140.33 143.492 2140.33 147.288 L2140.33 161.941 L2136.05 161.941 L2136.05 125.922 L2140.33 125.922 L2140.33 140.043 Q2141.86 137.705 2143.92 136.547 Q2146 135.39 2148.71 135.39 Q2153.18 135.39 2155.47 138.168 Q2157.76 140.922 2157.76 146.293 Z" fill="#000000" fill-rule="evenodd" fill-opacity="1" /><path clip-path="url(#clip940)" d="M2178.04 148.908 Q2172.88 148.908 2170.89 150.089 Q2168.9 151.269 2168.9 154.117 Q2168.9 156.385 2170.38 157.728 Q2171.88 159.047 2174.45 159.047 Q2177.99 159.047 2180.12 156.547 Q2182.28 154.024 2182.28 149.857 L2182.28 148.908 L2178.04 148.908 M2186.54 147.149 L2186.54 161.941 L2182.28 161.941 L2182.28 158.005 Q2180.82 160.367 2178.64 161.501 Q2176.47 162.612 2173.32 162.612 Q2169.34 162.612 2166.98 160.39 Q2164.64 158.144 2164.64 154.394 Q2164.64 150.019 2167.55 147.797 Q2170.49 145.575 2176.3 145.575 L2182.28 145.575 L2182.28 145.158 Q2182.28 142.219 2180.33 140.621 Q2178.41 139.001 2174.92 139.001 Q2172.69 139.001 2170.59 139.533 Q2168.48 140.066 2166.54 141.131 L2166.54 137.195 Q2168.87 136.293 2171.07 135.853 Q2173.27 135.39 2175.36 135.39 Q2180.98 135.39 2183.76 138.306 Q2186.54 141.223 2186.54 147.149 Z" fill="#000000" fill-rule="evenodd" fill-opacity="1" /><polyline clip-path="url(#clip940)" style="stroke:#e26f46; stroke-linecap:butt; stroke-linejoin:round; stroke-width:4; stroke-opacity:1; fill:none" points="
  1898.69,196.501 2038.91,196.501 
  "/>
<path clip-path="url(#clip940)" d="M2081.05 200.841 Q2081.05 196.142 2079.11 193.48 Q2077.18 190.795 2073.81 190.795 Q2070.43 190.795 2068.48 193.48 Q2066.56 196.142 2066.56 200.841 Q2066.56 205.54 2068.48 208.225 Q2070.43 210.887 2073.81 210.887 Q2077.18 210.887 2079.11 208.225 Q2081.05 205.54 2081.05 200.841 M2066.56 191.79 Q2067.9 189.475 2069.94 188.364 Q2072 187.23 2074.85 187.23 Q2079.57 187.23 2082.51 190.98 Q2085.47 194.73 2085.47 200.841 Q2085.47 206.952 2082.51 210.702 Q2079.57 214.452 2074.85 214.452 Q2072 214.452 2069.94 213.341 Q2067.9 212.207 2066.56 209.892 L2066.56 213.781 L2062.28 213.781 L2062.28 177.762 L2066.56 177.762 L2066.56 191.79 Z" fill="#000000" fill-rule="evenodd" fill-opacity="1" /><path clip-path="url(#clip940)" d="M2114.71 199.753 L2114.71 201.836 L2095.12 201.836 Q2095.4 206.234 2097.76 208.549 Q2100.15 210.841 2104.38 210.841 Q2106.84 210.841 2109.13 210.239 Q2111.44 209.637 2113.71 208.433 L2113.71 212.461 Q2111.42 213.433 2109.01 213.943 Q2106.61 214.452 2104.13 214.452 Q2097.93 214.452 2094.29 210.841 Q2090.68 207.23 2090.68 201.072 Q2090.68 194.707 2094.11 190.98 Q2097.55 187.23 2103.39 187.23 Q2108.62 187.23 2111.65 190.609 Q2114.71 193.966 2114.71 199.753 M2110.45 198.503 Q2110.4 195.008 2108.48 192.924 Q2106.58 190.841 2103.43 190.841 Q2099.87 190.841 2097.72 192.855 Q2095.59 194.869 2095.26 198.526 L2110.45 198.503 Z" fill="#000000" fill-rule="evenodd" fill-opacity="1" /><path clip-path="url(#clip940)" d="M2125.91 180.494 L2125.91 187.855 L2134.68 187.855 L2134.68 191.165 L2125.91 191.165 L2125.91 205.239 Q2125.91 208.41 2126.77 209.313 Q2127.65 210.216 2130.31 210.216 L2134.68 210.216 L2134.68 213.781 L2130.31 213.781 Q2125.38 213.781 2123.5 211.952 Q2121.63 210.1 2121.63 205.239 L2121.63 191.165 L2118.5 191.165 L2118.5 187.855 L2121.63 187.855 L2121.63 180.494 L2125.91 180.494 Z" fill="#000000" fill-rule="evenodd" fill-opacity="1" /><path clip-path="url(#clip940)" d="M2152.07 200.748 Q2146.91 200.748 2144.92 201.929 Q2142.93 203.109 2142.93 205.957 Q2142.93 208.225 2144.41 209.568 Q2145.91 210.887 2148.48 210.887 Q2152.02 210.887 2154.15 208.387 Q2156.3 205.864 2156.3 201.697 L2156.3 200.748 L2152.07 200.748 M2160.56 198.989 L2160.56 213.781 L2156.3 213.781 L2156.3 209.845 Q2154.85 212.207 2152.67 213.341 Q2150.49 214.452 2147.35 214.452 Q2143.36 214.452 2141 212.23 Q2138.67 209.984 2138.67 206.234 Q2138.67 201.859 2141.58 199.637 Q2144.52 197.415 2150.33 197.415 L2156.3 197.415 L2156.3 196.998 Q2156.3 194.059 2154.36 192.461 Q2152.44 190.841 2148.94 190.841 Q2146.72 190.841 2144.61 191.373 Q2142.51 191.906 2140.56 192.971 L2140.56 189.035 Q2142.9 188.133 2145.1 187.693 Q2147.3 187.23 2149.38 187.23 Q2155.01 187.23 2157.79 190.146 Q2160.56 193.063 2160.56 198.989 Z" fill="#000000" fill-rule="evenodd" fill-opacity="1" /><polyline clip-path="url(#clip940)" style="stroke:#3da44d; stroke-linecap:butt; stroke-linejoin:round; stroke-width:4; stroke-opacity:1; fill:none" points="
  1898.69,248.341 2038.91,248.341 
  "/>
<path clip-path="url(#clip940)" d="M2081.19 252.357 Q2081.19 247.727 2079.27 245.181 Q2077.37 242.635 2073.92 242.635 Q2070.49 242.635 2068.57 245.181 Q2066.68 247.727 2066.68 252.357 Q2066.68 256.963 2068.57 259.51 Q2070.49 262.056 2073.92 262.056 Q2077.37 262.056 2079.27 259.51 Q2081.19 256.963 2081.19 252.357 M2085.45 262.403 Q2085.45 269.023 2082.51 272.241 Q2079.57 275.482 2073.5 275.482 Q2071.26 275.482 2069.27 275.134 Q2067.28 274.81 2065.4 274.116 L2065.4 269.972 Q2067.28 270.991 2069.11 271.477 Q2070.93 271.963 2072.83 271.963 Q2077.02 271.963 2079.11 269.764 Q2081.19 267.588 2081.19 263.167 L2081.19 261.06 Q2079.87 263.352 2077.81 264.486 Q2075.75 265.621 2072.88 265.621 Q2068.11 265.621 2065.19 261.986 Q2062.28 258.352 2062.28 252.357 Q2062.28 246.338 2065.19 242.704 Q2068.11 239.07 2072.88 239.07 Q2075.75 239.07 2077.81 240.204 Q2079.87 241.338 2081.19 243.63 L2081.19 239.695 L2085.45 239.695 L2085.45 262.403 Z" fill="#000000" fill-rule="evenodd" fill-opacity="1" /><path clip-path="url(#clip940)" d="M2106 252.588 Q2100.84 252.588 2098.85 253.769 Q2096.86 254.949 2096.86 257.797 Q2096.86 260.065 2098.34 261.408 Q2099.85 262.727 2102.42 262.727 Q2105.96 262.727 2108.09 260.227 Q2110.24 257.704 2110.24 253.537 L2110.24 252.588 L2106 252.588 M2114.5 250.829 L2114.5 265.621 L2110.24 265.621 L2110.24 261.685 Q2108.78 264.047 2106.61 265.181 Q2104.43 266.292 2101.28 266.292 Q2097.3 266.292 2094.94 264.07 Q2092.6 261.824 2092.6 258.074 Q2092.6 253.699 2095.52 251.477 Q2098.46 249.255 2104.27 249.255 L2110.24 249.255 L2110.24 248.838 Q2110.24 245.899 2108.3 244.301 Q2106.37 242.681 2102.88 242.681 Q2100.66 242.681 2098.55 243.213 Q2096.44 243.746 2094.5 244.811 L2094.5 240.875 Q2096.84 239.973 2099.04 239.533 Q2101.24 239.07 2103.32 239.07 Q2108.94 239.07 2111.72 241.986 Q2114.5 244.903 2114.5 250.829 Z" fill="#000000" fill-rule="evenodd" fill-opacity="1" /><path clip-path="url(#clip940)" d="M2143.46 244.672 Q2145.05 241.801 2147.28 240.436 Q2149.5 239.07 2152.51 239.07 Q2156.56 239.07 2158.76 241.917 Q2160.96 244.741 2160.96 249.973 L2160.96 265.621 L2156.68 265.621 L2156.68 250.111 Q2156.68 246.385 2155.36 244.579 Q2154.04 242.774 2151.33 242.774 Q2148.02 242.774 2146.1 244.973 Q2144.18 247.172 2144.18 250.968 L2144.18 265.621 L2139.89 265.621 L2139.89 250.111 Q2139.89 246.361 2138.57 244.579 Q2137.25 242.774 2134.5 242.774 Q2131.24 242.774 2129.31 244.996 Q2127.39 247.195 2127.39 250.968 L2127.39 265.621 L2123.11 265.621 L2123.11 239.695 L2127.39 239.695 L2127.39 243.723 Q2128.85 241.338 2130.89 240.204 Q2132.93 239.07 2135.73 239.07 Q2138.55 239.07 2140.52 240.505 Q2142.51 241.94 2143.46 244.672 Z" fill="#000000" fill-rule="evenodd" fill-opacity="1" /><path clip-path="url(#clip940)" d="M2189.64 244.672 Q2191.24 241.801 2193.46 240.436 Q2195.68 239.07 2198.69 239.07 Q2202.74 239.07 2204.94 241.917 Q2207.14 244.741 2207.14 249.973 L2207.14 265.621 L2202.86 265.621 L2202.86 250.111 Q2202.86 246.385 2201.54 244.579 Q2200.22 242.774 2197.51 242.774 Q2194.2 242.774 2192.28 244.973 Q2190.36 247.172 2190.36 250.968 L2190.36 265.621 L2186.07 265.621 L2186.07 250.111 Q2186.07 246.361 2184.75 244.579 Q2183.43 242.774 2180.68 242.774 Q2177.42 242.774 2175.49 244.996 Q2173.57 247.195 2173.57 250.968 L2173.57 265.621 L2169.29 265.621 L2169.29 239.695 L2173.57 239.695 L2173.57 243.723 Q2175.03 241.338 2177.07 240.204 Q2179.11 239.07 2181.91 239.07 Q2184.73 239.07 2186.7 240.505 Q2188.69 241.94 2189.64 244.672 Z" fill="#000000" fill-rule="evenodd" fill-opacity="1" /><path clip-path="url(#clip940)" d="M2227.42 252.588 Q2222.25 252.588 2220.26 253.769 Q2218.27 254.949 2218.27 257.797 Q2218.27 260.065 2219.75 261.408 Q2221.26 262.727 2223.83 262.727 Q2227.37 262.727 2229.5 260.227 Q2231.65 257.704 2231.65 253.537 L2231.65 252.588 L2227.42 252.588 M2235.91 250.829 L2235.91 265.621 L2231.65 265.621 L2231.65 261.685 Q2230.19 264.047 2228.02 265.181 Q2225.84 266.292 2222.69 266.292 Q2218.71 266.292 2216.35 264.07 Q2214.01 261.824 2214.01 258.074 Q2214.01 253.699 2216.93 251.477 Q2219.87 249.255 2225.68 249.255 L2231.65 249.255 L2231.65 248.838 Q2231.65 245.899 2229.71 244.301 Q2227.79 242.681 2224.29 242.681 Q2222.07 242.681 2219.96 243.213 Q2217.86 243.746 2215.91 244.811 L2215.91 240.875 Q2218.25 239.973 2220.45 239.533 Q2222.65 239.07 2224.73 239.07 Q2230.36 239.07 2233.13 241.986 Q2235.91 244.903 2235.91 250.829 Z" fill="#000000" fill-rule="evenodd" fill-opacity="1" /></svg>
