<?xml version="1.0" encoding="utf-8"?>
<svg xmlns="http://www.w3.org/2000/svg" xmlns:xlink="http://www.w3.org/1999/xlink" width="600" height="400" viewBox="0 0 2400 1600">
<defs>
  <clipPath id="clip190">
    <rect x="0" y="0" width="2400" height="1600"/>
  </clipPath>
</defs>
<path clip-path="url(#clip190)" d="
M0 1600 L2400 1600 L2400 0 L0 0  Z
  " fill="#ffffff" fill-rule="evenodd" fill-opacity="1"/>
<defs>
  <clipPath id="clip191">
    <rect x="480" y="0" width="1681" height="1600"/>
  </clipPath>
</defs>
<path clip-path="url(#clip190)" d="
M238.13 1423.18 L2352.76 1423.18 L2352.76 47.2441 L238.13 47.2441  Z
  " fill="#ffffff" fill-rule="evenodd" fill-opacity="1"/>
<defs>
  <clipPath id="clip192">
    <rect x="238" y="47" width="2116" height="1377"/>
  </clipPath>
</defs>
<polyline clip-path="url(#clip192)" style="stroke:#000000; stroke-width:2; stroke-opacity:0.1; fill:none" points="
  238.13,1423.18 238.13,47.2441 
  "/>
<polyline clip-path="url(#clip192)" style="stroke:#000000; stroke-width:2; stroke-opacity:0.1; fill:none" points="
  662.439,1423.18 662.439,47.2441 
  "/>
<polyline clip-path="url(#clip192)" style="stroke:#000000; stroke-width:2; stroke-opacity:0.1; fill:none" points="
  1086.75,1423.18 1086.75,47.2441 
  "/>
<polyline clip-path="url(#clip192)" style="stroke:#000000; stroke-width:2; stroke-opacity:0.1; fill:none" points="
  1511.06,1423.18 1511.06,47.2441 
  "/>
<polyline clip-path="url(#clip192)" style="stroke:#000000; stroke-width:2; stroke-opacity:0.1; fill:none" points="
  1935.36,1423.18 1935.36,47.2441 
  "/>
<polyline clip-path="url(#clip192)" style="stroke:#000000; stroke-width:2; stroke-opacity:0.1; fill:none" points="
  238.13,1423.18 2352.76,1423.18 
  "/>
<polyline clip-path="url(#clip192)" style="stroke:#000000; stroke-width:2; stroke-opacity:0.1; fill:none" points="
  238.13,1110.47 2352.76,1110.47 
  "/>
<polyline clip-path="url(#clip192)" style="stroke:#000000; stroke-width:2; stroke-opacity:0.1; fill:none" points="
  238.13,797.755 2352.76,797.755 
  "/>
<polyline clip-path="url(#clip192)" style="stroke:#000000; stroke-width:2; stroke-opacity:0.1; fill:none" points="
  238.13,485.042 2352.76,485.042 
  "/>
<polyline clip-path="url(#clip192)" style="stroke:#000000; stroke-width:2; stroke-opacity:0.1; fill:none" points="
  238.13,172.329 2352.76,172.329 
  "/>
<polyline clip-path="url(#clip190)" style="stroke:#000000; stroke-width:4; stroke-opacity:1; fill:none" points="
  238.13,1423.18 2352.76,1423.18 
  "/>
<polyline clip-path="url(#clip190)" style="stroke:#000000; stroke-width:4; stroke-opacity:1; fill:none" points="
  238.13,1423.18 238.13,47.2441 
  "/>
<polyline clip-path="url(#clip190)" style="stroke:#000000; stroke-width:4; stroke-opacity:1; fill:none" points="
  238.13,1423.18 238.13,1406.67 
  "/>
<polyline clip-path="url(#clip190)" style="stroke:#000000; stroke-width:4; stroke-opacity:1; fill:none" points="
  662.439,1423.18 662.439,1406.67 
  "/>
<polyline clip-path="url(#clip190)" style="stroke:#000000; stroke-width:4; stroke-opacity:1; fill:none" points="
  1086.75,1423.18 1086.75,1406.67 
  "/>
<polyline clip-path="url(#clip190)" style="stroke:#000000; stroke-width:4; stroke-opacity:1; fill:none" points="
  1511.06,1423.18 1511.06,1406.67 
  "/>
<polyline clip-path="url(#clip190)" style="stroke:#000000; stroke-width:4; stroke-opacity:1; fill:none" points="
  1935.36,1423.18 1935.36,1406.67 
  "/>
<polyline clip-path="url(#clip190)" style="stroke:#000000; stroke-width:4; stroke-opacity:1; fill:none" points="
  238.13,1423.18 263.506,1423.18 
  "/>
<polyline clip-path="url(#clip190)" style="stroke:#000000; stroke-width:4; stroke-opacity:1; fill:none" points="
  238.13,1110.47 263.506,1110.47 
  "/>
<polyline clip-path="url(#clip190)" style="stroke:#000000; stroke-width:4; stroke-opacity:1; fill:none" points="
  238.13,797.755 263.506,797.755 
  "/>
<polyline clip-path="url(#clip190)" style="stroke:#000000; stroke-width:4; stroke-opacity:1; fill:none" points="
  238.13,485.042 263.506,485.042 
  "/>
<polyline clip-path="url(#clip190)" style="stroke:#000000; stroke-width:4; stroke-opacity:1; fill:none" points="
  238.13,172.329 263.506,172.329 
  "/>
<path clip-path="url(#clip190)" d="M 0 0 M238.13 1445.17 Q234.519 1445.17 232.69 1448.74 Q230.885 1452.28 230.885 1459.41 Q230.885 1466.51 232.69 1470.08 Q234.519 1473.62 238.13 1473.62 Q241.764 1473.62 243.57 1470.08 Q245.399 1466.51 245.399 1459.41 Q245.399 1452.28 243.57 1448.74 Q241.764 1445.17 238.13 1445.17 M238.13 1441.47 Q243.94 1441.47 246.996 1446.07 Q250.074 1450.66 250.074 1459.41 Q250.074 1468.13 246.996 1472.74 Q243.94 1477.32 238.13 1477.32 Q232.32 1477.32 229.241 1472.74 Q226.186 1468.13 226.186 1459.41 Q226.186 1450.66 229.241 1446.07 Q232.32 1441.47 238.13 1441.47 Z" fill="#000000" fill-rule="evenodd" fill-opacity="1" /><path clip-path="url(#clip190)" d="M 0 0 M652.821 1472.72 L660.46 1472.72 L660.46 1446.35 L652.149 1448.02 L652.149 1443.76 L660.413 1442.09 L665.089 1442.09 L665.089 1472.72 L672.728 1472.72 L672.728 1476.65 L652.821 1476.65 L652.821 1472.72 Z" fill="#000000" fill-rule="evenodd" fill-opacity="1" /><path clip-path="url(#clip190)" d="M 0 0 M1081.4 1472.72 L1097.72 1472.72 L1097.72 1476.65 L1075.78 1476.65 L1075.78 1472.72 Q1078.44 1469.96 1083.02 1465.33 Q1087.63 1460.68 1088.81 1459.34 Q1091.05 1456.81 1091.93 1455.08 Q1092.84 1453.32 1092.84 1451.63 Q1092.84 1448.87 1090.89 1447.14 Q1088.97 1445.4 1085.87 1445.4 Q1083.67 1445.4 1081.22 1446.17 Q1078.78 1446.93 1076.01 1448.48 L1076.01 1443.76 Q1078.83 1442.62 1081.28 1442.05 Q1083.74 1441.47 1085.78 1441.47 Q1091.15 1441.47 1094.34 1444.15 Q1097.53 1446.84 1097.53 1451.33 Q1097.53 1453.46 1096.72 1455.38 Q1095.94 1457.28 1093.83 1459.87 Q1093.25 1460.54 1090.15 1463.76 Q1087.05 1466.95 1081.4 1472.72 Z" fill="#000000" fill-rule="evenodd" fill-opacity="1" /><path clip-path="url(#clip190)" d="M 0 0 M1515.3 1458.02 Q1518.66 1458.74 1520.54 1461 Q1522.43 1463.27 1522.43 1466.61 Q1522.43 1471.72 1518.91 1474.52 Q1515.4 1477.32 1508.92 1477.32 Q1506.74 1477.32 1504.42 1476.88 Q1502.13 1476.47 1499.68 1475.61 L1499.68 1471.1 Q1501.62 1472.23 1503.94 1472.81 Q1506.25 1473.39 1508.78 1473.39 Q1513.17 1473.39 1515.47 1471.65 Q1517.78 1469.92 1517.78 1466.61 Q1517.78 1463.55 1515.63 1461.84 Q1513.5 1460.1 1509.68 1460.1 L1505.65 1460.1 L1505.65 1456.26 L1509.86 1456.26 Q1513.31 1456.26 1515.14 1454.89 Q1516.97 1453.5 1516.97 1450.91 Q1516.97 1448.25 1515.07 1446.84 Q1513.2 1445.4 1509.68 1445.4 Q1507.76 1445.4 1505.56 1445.82 Q1503.36 1446.24 1500.72 1447.11 L1500.72 1442.95 Q1503.38 1442.21 1505.7 1441.84 Q1508.04 1441.47 1510.1 1441.47 Q1515.42 1441.47 1518.52 1443.9 Q1521.62 1446.3 1521.62 1450.43 Q1521.62 1453.3 1519.98 1455.29 Q1518.34 1457.25 1515.3 1458.02 Z" fill="#000000" fill-rule="evenodd" fill-opacity="1" /><path clip-path="url(#clip190)" d="M 0 0 M1938.37 1446.17 L1926.57 1464.61 L1938.37 1464.61 L1938.37 1446.17 M1937.15 1442.09 L1943.03 1442.09 L1943.03 1464.61 L1947.96 1464.61 L1947.96 1468.5 L1943.03 1468.5 L1943.03 1476.65 L1938.37 1476.65 L1938.37 1468.5 L1922.77 1468.5 L1922.77 1463.99 L1937.15 1442.09 Z" fill="#000000" fill-rule="evenodd" fill-opacity="1" /><path clip-path="url(#clip190)" d="M 0 0 M138.205 1408.98 Q134.593 1408.98 132.765 1412.54 Q130.959 1416.08 130.959 1423.21 Q130.959 1430.32 132.765 1433.89 Q134.593 1437.43 138.205 1437.43 Q141.839 1437.43 143.644 1433.89 Q145.473 1430.32 145.473 1423.21 Q145.473 1416.08 143.644 1412.54 Q141.839 1408.98 138.205 1408.98 M138.205 1405.27 Q144.015 1405.27 147.07 1409.88 Q150.149 1414.46 150.149 1423.21 Q150.149 1431.94 147.07 1436.55 Q144.015 1441.13 138.205 1441.13 Q132.394 1441.13 129.316 1436.55 Q126.26 1431.94 126.26 1423.21 Q126.26 1414.46 129.316 1409.88 Q132.394 1405.27 138.205 1405.27 Z" fill="#000000" fill-rule="evenodd" fill-opacity="1" /><path clip-path="url(#clip190)" d="M 0 0 M155.218 1434.58 L160.103 1434.58 L160.103 1440.46 L155.218 1440.46 L155.218 1434.58 Z" fill="#000000" fill-rule="evenodd" fill-opacity="1" /><path clip-path="url(#clip190)" d="M 0 0 M175.172 1408.98 Q171.561 1408.98 169.732 1412.54 Q167.927 1416.08 167.927 1423.21 Q167.927 1430.32 169.732 1433.89 Q171.561 1437.43 175.172 1437.43 Q178.806 1437.43 180.612 1433.89 Q182.44 1430.32 182.44 1423.21 Q182.44 1416.08 180.612 1412.54 Q178.806 1408.98 175.172 1408.98 M175.172 1405.27 Q180.982 1405.27 184.038 1409.88 Q187.116 1414.46 187.116 1423.21 Q187.116 1431.94 184.038 1436.55 Q180.982 1441.13 175.172 1441.13 Q169.362 1441.13 166.283 1436.55 Q163.228 1431.94 163.228 1423.21 Q163.228 1414.46 166.283 1409.88 Q169.362 1405.27 175.172 1405.27 Z" fill="#000000" fill-rule="evenodd" fill-opacity="1" /><path clip-path="url(#clip190)" d="M 0 0 M202.186 1408.98 Q198.575 1408.98 196.746 1412.54 Q194.94 1416.08 194.94 1423.21 Q194.94 1430.32 196.746 1433.89 Q198.575 1437.43 202.186 1437.43 Q205.82 1437.43 207.625 1433.89 Q209.454 1430.32 209.454 1423.21 Q209.454 1416.08 207.625 1412.54 Q205.82 1408.98 202.186 1408.98 M202.186 1405.27 Q207.996 1405.27 211.051 1409.88 Q214.13 1414.46 214.13 1423.21 Q214.13 1431.94 211.051 1436.55 Q207.996 1441.13 202.186 1441.13 Q196.376 1441.13 193.297 1436.55 Q190.241 1431.94 190.241 1423.21 Q190.241 1414.46 193.297 1409.88 Q196.376 1405.27 202.186 1405.27 Z" fill="#000000" fill-rule="evenodd" fill-opacity="1" /><path clip-path="url(#clip190)" d="M 0 0 M140.797 1096.27 Q137.186 1096.27 135.357 1099.83 Q133.552 1103.37 133.552 1110.5 Q133.552 1117.61 135.357 1121.17 Q137.186 1124.71 140.797 1124.71 Q144.431 1124.71 146.237 1121.17 Q148.066 1117.61 148.066 1110.5 Q148.066 1103.37 146.237 1099.83 Q144.431 1096.27 140.797 1096.27 M140.797 1092.56 Q146.607 1092.56 149.663 1097.17 Q152.741 1101.75 152.741 1110.5 Q152.741 1119.23 149.663 1123.84 Q146.607 1128.42 140.797 1128.42 Q134.987 1128.42 131.908 1123.84 Q128.853 1119.23 128.853 1110.5 Q128.853 1101.75 131.908 1097.17 Q134.987 1092.56 140.797 1092.56 Z" fill="#000000" fill-rule="evenodd" fill-opacity="1" /><path clip-path="url(#clip190)" d="M 0 0 M157.811 1121.87 L162.695 1121.87 L162.695 1127.75 L157.811 1127.75 L157.811 1121.87 Z" fill="#000000" fill-rule="evenodd" fill-opacity="1" /><path clip-path="url(#clip190)" d="M 0 0 M171.792 1123.81 L188.112 1123.81 L188.112 1127.75 L166.167 1127.75 L166.167 1123.81 Q168.829 1121.06 173.413 1116.43 Q178.019 1111.78 179.2 1110.43 Q181.445 1107.91 182.325 1106.17 Q183.227 1104.41 183.227 1102.72 Q183.227 1099.97 181.283 1098.23 Q179.362 1096.5 176.26 1096.5 Q174.061 1096.5 171.607 1097.26 Q169.177 1098.03 166.399 1099.58 L166.399 1094.85 Q169.223 1093.72 171.677 1093.14 Q174.13 1092.56 176.167 1092.56 Q181.538 1092.56 184.732 1095.25 Q187.926 1097.93 187.926 1102.42 Q187.926 1104.55 187.116 1106.47 Q186.329 1108.37 184.223 1110.96 Q183.644 1111.64 180.542 1114.85 Q177.44 1118.05 171.792 1123.81 Z" fill="#000000" fill-rule="evenodd" fill-opacity="1" /><path clip-path="url(#clip190)" d="M 0 0 M193.227 1093.19 L211.584 1093.19 L211.584 1097.12 L197.51 1097.12 L197.51 1105.59 Q198.528 1105.25 199.547 1105.09 Q200.565 1104.9 201.584 1104.9 Q207.371 1104.9 210.75 1108.07 Q214.13 1111.24 214.13 1116.66 Q214.13 1122.24 210.658 1125.34 Q207.186 1128.42 200.866 1128.42 Q198.69 1128.42 196.422 1128.05 Q194.176 1127.68 191.769 1126.94 L191.769 1122.24 Q193.852 1123.37 196.075 1123.93 Q198.297 1124.48 200.774 1124.48 Q204.778 1124.48 207.116 1122.38 Q209.454 1120.27 209.454 1116.66 Q209.454 1113.05 207.116 1110.94 Q204.778 1108.84 200.774 1108.84 Q198.899 1108.84 197.024 1109.25 Q195.172 1109.67 193.227 1110.55 L193.227 1093.19 Z" fill="#000000" fill-rule="evenodd" fill-opacity="1" /><path clip-path="url(#clip190)" d="M 0 0 M139.2 783.553 Q135.589 783.553 133.76 787.118 Q131.955 790.66 131.955 797.789 Q131.955 804.896 133.76 808.46 Q135.589 812.002 139.2 812.002 Q142.834 812.002 144.64 808.46 Q146.468 804.896 146.468 797.789 Q146.468 790.66 144.64 787.118 Q142.834 783.553 139.2 783.553 M139.2 779.85 Q145.01 779.85 148.066 784.456 Q151.144 789.039 151.144 797.789 Q151.144 806.516 148.066 811.122 Q145.01 815.706 139.2 815.706 Q133.39 815.706 130.311 811.122 Q127.256 806.516 127.256 797.789 Q127.256 789.039 130.311 784.456 Q133.39 779.85 139.2 779.85 Z" fill="#000000" fill-rule="evenodd" fill-opacity="1" /><path clip-path="url(#clip190)" d="M 0 0 M156.214 809.155 L161.098 809.155 L161.098 815.035 L156.214 815.035 L156.214 809.155 Z" fill="#000000" fill-rule="evenodd" fill-opacity="1" /><path clip-path="url(#clip190)" d="M 0 0 M166.214 780.475 L184.57 780.475 L184.57 784.41 L170.496 784.41 L170.496 792.882 Q171.515 792.535 172.533 792.373 Q173.552 792.187 174.57 792.187 Q180.357 792.187 183.737 795.359 Q187.116 798.53 187.116 803.947 Q187.116 809.525 183.644 812.627 Q180.172 815.706 173.852 815.706 Q171.677 815.706 169.408 815.335 Q167.163 814.965 164.755 814.224 L164.755 809.525 Q166.839 810.66 169.061 811.215 Q171.283 811.771 173.76 811.771 Q177.765 811.771 180.102 809.664 Q182.44 807.558 182.44 803.947 Q182.44 800.336 180.102 798.229 Q177.765 796.123 173.76 796.123 Q171.885 796.123 170.01 796.539 Q168.158 796.956 166.214 797.836 L166.214 780.475 Z" fill="#000000" fill-rule="evenodd" fill-opacity="1" /><path clip-path="url(#clip190)" d="M 0 0 M202.186 783.553 Q198.575 783.553 196.746 787.118 Q194.94 790.66 194.94 797.789 Q194.94 804.896 196.746 808.46 Q198.575 812.002 202.186 812.002 Q205.82 812.002 207.625 808.46 Q209.454 804.896 209.454 797.789 Q209.454 790.66 207.625 787.118 Q205.82 783.553 202.186 783.553 M202.186 779.85 Q207.996 779.85 211.051 784.456 Q214.13 789.039 214.13 797.789 Q214.13 806.516 211.051 811.122 Q207.996 815.706 202.186 815.706 Q196.376 815.706 193.297 811.122 Q190.241 806.516 190.241 797.789 Q190.241 789.039 193.297 784.456 Q196.376 779.85 202.186 779.85 Z" fill="#000000" fill-rule="evenodd" fill-opacity="1" /><path clip-path="url(#clip190)" d="M 0 0 M140.103 470.841 Q136.492 470.841 134.663 474.405 Q132.857 477.947 132.857 485.077 Q132.857 492.183 134.663 495.748 Q136.492 499.289 140.103 499.289 Q143.737 499.289 145.542 495.748 Q147.371 492.183 147.371 485.077 Q147.371 477.947 145.542 474.405 Q143.737 470.841 140.103 470.841 M140.103 467.137 Q145.913 467.137 148.968 471.743 Q152.047 476.327 152.047 485.077 Q152.047 493.803 148.968 498.41 Q145.913 502.993 140.103 502.993 Q134.293 502.993 131.214 498.41 Q128.158 493.803 128.158 485.077 Q128.158 476.327 131.214 471.743 Q134.293 467.137 140.103 467.137 Z" fill="#000000" fill-rule="evenodd" fill-opacity="1" /><path clip-path="url(#clip190)" d="M 0 0 M157.116 496.442 L162.001 496.442 L162.001 502.322 L157.116 502.322 L157.116 496.442 Z" fill="#000000" fill-rule="evenodd" fill-opacity="1" /><path clip-path="url(#clip190)" d="M 0 0 M165.89 467.762 L188.112 467.762 L188.112 469.753 L175.565 502.322 L170.681 502.322 L182.487 471.697 L165.89 471.697 L165.89 467.762 Z" fill="#000000" fill-rule="evenodd" fill-opacity="1" /><path clip-path="url(#clip190)" d="M 0 0 M193.227 467.762 L211.584 467.762 L211.584 471.697 L197.51 471.697 L197.51 480.169 Q198.528 479.822 199.547 479.66 Q200.565 479.475 201.584 479.475 Q207.371 479.475 210.75 482.646 Q214.13 485.817 214.13 491.234 Q214.13 496.813 210.658 499.914 Q207.186 502.993 200.866 502.993 Q198.69 502.993 196.422 502.623 Q194.176 502.252 191.769 501.512 L191.769 496.813 Q193.852 497.947 196.075 498.502 Q198.297 499.058 200.774 499.058 Q204.778 499.058 207.116 496.951 Q209.454 494.845 209.454 491.234 Q209.454 487.623 207.116 485.516 Q204.778 483.41 200.774 483.41 Q198.899 483.41 197.024 483.827 Q195.172 484.243 193.227 485.123 L193.227 467.762 Z" fill="#000000" fill-rule="evenodd" fill-opacity="1" /><path clip-path="url(#clip190)" d="M 0 0 M130.242 185.674 L137.88 185.674 L137.88 159.308 L129.57 160.975 L129.57 156.716 L137.834 155.049 L142.51 155.049 L142.51 185.674 L150.149 185.674 L150.149 189.609 L130.242 189.609 L130.242 185.674 Z" fill="#000000" fill-rule="evenodd" fill-opacity="1" /><path clip-path="url(#clip190)" d="M 0 0 M155.218 183.73 L160.103 183.73 L160.103 189.609 L155.218 189.609 L155.218 183.73 Z" fill="#000000" fill-rule="evenodd" fill-opacity="1" /><path clip-path="url(#clip190)" d="M 0 0 M175.172 158.128 Q171.561 158.128 169.732 161.693 Q167.927 165.234 167.927 172.364 Q167.927 179.47 169.732 183.035 Q171.561 186.577 175.172 186.577 Q178.806 186.577 180.612 183.035 Q182.44 179.47 182.44 172.364 Q182.44 165.234 180.612 161.693 Q178.806 158.128 175.172 158.128 M175.172 154.424 Q180.982 154.424 184.038 159.031 Q187.116 163.614 187.116 172.364 Q187.116 181.091 184.038 185.697 Q180.982 190.28 175.172 190.28 Q169.362 190.28 166.283 185.697 Q163.228 181.091 163.228 172.364 Q163.228 163.614 166.283 159.031 Q169.362 154.424 175.172 154.424 Z" fill="#000000" fill-rule="evenodd" fill-opacity="1" /><path clip-path="url(#clip190)" d="M 0 0 M202.186 158.128 Q198.575 158.128 196.746 161.693 Q194.94 165.234 194.94 172.364 Q194.94 179.47 196.746 183.035 Q198.575 186.577 202.186 186.577 Q205.82 186.577 207.625 183.035 Q209.454 179.47 209.454 172.364 Q209.454 165.234 207.625 161.693 Q205.82 158.128 202.186 158.128 M202.186 154.424 Q207.996 154.424 211.051 159.031 Q214.13 163.614 214.13 172.364 Q214.13 181.091 211.051 185.697 Q207.996 190.28 202.186 190.28 Q196.376 190.28 193.297 185.697 Q190.241 181.091 190.241 172.364 Q190.241 163.614 193.297 159.031 Q196.376 154.424 202.186 154.424 Z" fill="#000000" fill-rule="evenodd" fill-opacity="1" /><path clip-path="url(#clip190)" d="M 0 0 M716.355 1508.52 L722.848 1508.52 L732.842 1548.69 L742.804 1508.52 L750.029 1508.52 L760.023 1548.69 L769.986 1508.52 L776.511 1508.52 L764.575 1556.04 L756.49 1556.04 L746.464 1514.79 L736.343 1556.04 L728.259 1556.04 L716.355 1508.52 Z" fill="#000000" fill-rule="evenodd" fill-opacity="1" /><path clip-path="url(#clip190)" d="M 0 0 M781.221 1520.4 L787.078 1520.4 L787.078 1556.04 L781.221 1556.04 L781.221 1520.4 M781.221 1506.52 L787.078 1506.52 L787.078 1513.93 L781.221 1513.93 L781.221 1506.52 Z" fill="#000000" fill-rule="evenodd" fill-opacity="1" /><path clip-path="url(#clip190)" d="M 0 0 M799.013 1510.27 L799.013 1520.4 L811.076 1520.4 L811.076 1524.95 L799.013 1524.95 L799.013 1544.3 Q799.013 1548.66 800.191 1549.9 Q801.4 1551.14 805.061 1551.14 L811.076 1551.14 L811.076 1556.04 L805.061 1556.04 Q798.281 1556.04 795.703 1553.53 Q793.125 1550.98 793.125 1544.3 L793.125 1524.95 L788.828 1524.95 L788.828 1520.4 L793.125 1520.4 L793.125 1510.27 L799.013 1510.27 Z" fill="#000000" fill-rule="evenodd" fill-opacity="1" /><path clip-path="url(#clip190)" d="M 0 0 M846.852 1534.53 L846.852 1556.04 L840.995 1556.04 L840.995 1534.72 Q840.995 1529.66 839.022 1527.14 Q837.048 1524.63 833.102 1524.63 Q828.359 1524.63 825.622 1527.65 Q822.885 1530.68 822.885 1535.9 L822.885 1556.04 L816.996 1556.04 L816.996 1506.52 L822.885 1506.52 L822.885 1525.93 Q824.985 1522.72 827.818 1521.13 Q830.683 1519.54 834.407 1519.54 Q840.55 1519.54 843.701 1523.36 Q846.852 1527.14 846.852 1534.53 Z" fill="#000000" fill-rule="evenodd" fill-opacity="1" /><path clip-path="url(#clip190)" d="M 0 0 M852.995 1520.4 L858.851 1520.4 L858.851 1556.04 L852.995 1556.04 L852.995 1520.4 M852.995 1506.52 L858.851 1506.52 L858.851 1513.93 L852.995 1513.93 L852.995 1506.52 Z" fill="#000000" fill-rule="evenodd" fill-opacity="1" /><path clip-path="url(#clip190)" d="M 0 0 M894.626 1534.53 L894.626 1556.04 L888.77 1556.04 L888.77 1534.72 Q888.77 1529.66 886.796 1527.14 Q884.823 1524.63 880.876 1524.63 Q876.134 1524.63 873.397 1527.65 Q870.659 1530.68 870.659 1535.9 L870.659 1556.04 L864.771 1556.04 L864.771 1520.4 L870.659 1520.4 L870.659 1525.93 Q872.76 1522.72 875.593 1521.13 Q878.457 1519.54 882.181 1519.54 Q888.324 1519.54 891.475 1523.36 Q894.626 1527.14 894.626 1534.53 Z" fill="#000000" fill-rule="evenodd" fill-opacity="1" /><path clip-path="url(#clip190)" d="M 0 0 M927.282 1510.27 L927.282 1520.4 L939.345 1520.4 L939.345 1524.95 L927.282 1524.95 L927.282 1544.3 Q927.282 1548.66 928.46 1549.9 Q929.669 1551.14 933.33 1551.14 L939.345 1551.14 L939.345 1556.04 L933.33 1556.04 Q926.55 1556.04 923.972 1553.53 Q921.394 1550.98 921.394 1544.3 L921.394 1524.95 L917.097 1524.95 L917.097 1520.4 L921.394 1520.4 L921.394 1510.27 L927.282 1510.27 Z" fill="#000000" fill-rule="evenodd" fill-opacity="1" /><path clip-path="url(#clip190)" d="M 0 0 M975.121 1534.53 L975.121 1556.04 L969.264 1556.04 L969.264 1534.72 Q969.264 1529.66 967.291 1527.14 Q965.317 1524.63 961.371 1524.63 Q956.628 1524.63 953.891 1527.65 Q951.154 1530.68 951.154 1535.9 L951.154 1556.04 L945.265 1556.04 L945.265 1506.52 L951.154 1506.52 L951.154 1525.93 Q953.254 1522.72 956.087 1521.13 Q958.952 1519.54 962.676 1519.54 Q968.819 1519.54 971.97 1523.36 Q975.121 1527.14 975.121 1534.53 Z" fill="#000000" fill-rule="evenodd" fill-opacity="1" /><path clip-path="url(#clip190)" d="M 0 0 M981.264 1520.4 L987.12 1520.4 L987.12 1556.04 L981.264 1556.04 L981.264 1520.4 M981.264 1506.52 L987.12 1506.52 L987.12 1513.93 L981.264 1513.93 L981.264 1506.52 Z" fill="#000000" fill-rule="evenodd" fill-opacity="1" /><path clip-path="url(#clip190)" d="M 0 0 M1015.99 1521.45 L1015.99 1526.98 Q1013.51 1525.71 1010.83 1525.07 Q1008.16 1524.44 1005.29 1524.44 Q1000.93 1524.44 998.737 1525.77 Q996.573 1527.11 996.573 1529.79 Q996.573 1531.82 998.133 1533 Q999.692 1534.15 1004.4 1535.2 L1006.41 1535.64 Q1012.65 1536.98 1015.26 1539.43 Q1017.9 1541.85 1017.9 1546.21 Q1017.9 1551.17 1013.95 1554.07 Q1010.04 1556.97 1003.16 1556.97 Q1000.3 1556.97 997.178 1556.39 Q994.09 1555.85 990.653 1554.74 L990.653 1548.69 Q993.899 1550.38 997.05 1551.24 Q1000.2 1552.07 1003.29 1552.07 Q1007.43 1552.07 1009.65 1550.66 Q1011.88 1549.23 1011.88 1546.65 Q1011.88 1544.27 1010.26 1542.99 Q1008.67 1541.72 1003.23 1540.54 L1001.19 1540.07 Q995.746 1538.92 993.327 1536.56 Q990.908 1534.18 990.908 1530.04 Q990.908 1525.01 994.472 1522.27 Q998.037 1519.54 1004.59 1519.54 Q1007.84 1519.54 1010.7 1520.01 Q1013.57 1520.49 1015.99 1521.45 Z" fill="#000000" fill-rule="evenodd" fill-opacity="1" /><path clip-path="url(#clip190)" d="M 0 0 M1062.81 1506.52 L1062.81 1511.39 L1057.21 1511.39 Q1054.06 1511.39 1052.81 1512.66 Q1051.6 1513.93 1051.6 1517.24 L1051.6 1520.4 L1061.25 1520.4 L1061.25 1524.95 L1051.6 1524.95 L1051.6 1556.04 L1045.72 1556.04 L1045.72 1524.95 L1040.11 1524.95 L1040.11 1520.4 L1045.72 1520.4 L1045.72 1517.91 Q1045.72 1511.96 1048.49 1509.26 Q1051.25 1506.52 1057.27 1506.52 L1062.81 1506.52 Z" fill="#000000" fill-rule="evenodd" fill-opacity="1" /><path clip-path="url(#clip190)" d="M 0 0 M1085.15 1538.12 Q1078.05 1538.12 1075.32 1539.75 Q1072.58 1541.37 1072.58 1545.29 Q1072.58 1548.4 1074.62 1550.25 Q1076.69 1552.07 1080.22 1552.07 Q1085.09 1552.07 1088.02 1548.63 Q1090.98 1545.16 1090.98 1539.43 L1090.98 1538.12 L1085.15 1538.12 M1096.83 1535.71 L1096.83 1556.04 L1090.98 1556.04 L1090.98 1550.63 Q1088.97 1553.88 1085.98 1555.44 Q1082.99 1556.97 1078.66 1556.97 Q1073.18 1556.97 1069.94 1553.91 Q1066.72 1550.82 1066.72 1545.67 Q1066.72 1539.65 1070.73 1536.6 Q1074.78 1533.54 1082.76 1533.54 L1090.98 1533.54 L1090.98 1532.97 Q1090.98 1528.93 1088.3 1526.73 Q1085.66 1524.5 1080.86 1524.5 Q1077.8 1524.5 1074.9 1525.23 Q1072.01 1525.97 1069.33 1527.43 L1069.33 1522.02 Q1072.55 1520.78 1075.57 1520.17 Q1078.6 1519.54 1081.46 1519.54 Q1089.19 1519.54 1093.01 1523.55 Q1096.83 1527.56 1096.83 1535.71 Z" fill="#000000" fill-rule="evenodd" fill-opacity="1" /><path clip-path="url(#clip190)" d="M 0 0 M1128.63 1521.76 L1128.63 1527.24 Q1126.15 1525.87 1123.63 1525.2 Q1121.15 1524.5 1118.6 1524.5 Q1112.91 1524.5 1109.76 1528.13 Q1106.6 1531.73 1106.6 1538.25 Q1106.6 1544.78 1109.76 1548.4 Q1112.91 1552 1118.6 1552 Q1121.15 1552 1123.63 1551.33 Q1126.15 1550.63 1128.63 1549.26 L1128.63 1554.68 Q1126.18 1555.82 1123.54 1556.39 Q1120.93 1556.97 1117.97 1556.97 Q1109.91 1556.97 1105.17 1551.91 Q1100.43 1546.85 1100.43 1538.25 Q1100.43 1529.53 1105.2 1524.53 Q1110.01 1519.54 1118.35 1519.54 Q1121.05 1519.54 1123.63 1520.11 Q1126.21 1520.65 1128.63 1521.76 Z" fill="#000000" fill-rule="evenodd" fill-opacity="1" /><path clip-path="url(#clip190)" d="M 0 0 M1140.57 1510.27 L1140.57 1520.4 L1152.63 1520.4 L1152.63 1524.95 L1140.57 1524.95 L1140.57 1544.3 Q1140.57 1548.66 1141.74 1549.9 Q1142.95 1551.14 1146.61 1551.14 L1152.63 1551.14 L1152.63 1556.04 L1146.61 1556.04 Q1139.83 1556.04 1137.26 1553.53 Q1134.68 1550.98 1134.68 1544.3 L1134.68 1524.95 L1130.38 1524.95 L1130.38 1520.4 L1134.68 1520.4 L1134.68 1510.27 L1140.57 1510.27 Z" fill="#000000" fill-rule="evenodd" fill-opacity="1" /><path clip-path="url(#clip190)" d="M 0 0 M1172.58 1524.5 Q1167.87 1524.5 1165.14 1528.19 Q1162.4 1531.85 1162.4 1538.25 Q1162.4 1544.65 1165.11 1548.34 Q1167.84 1552 1172.58 1552 Q1177.26 1552 1180 1548.31 Q1182.74 1544.62 1182.74 1538.25 Q1182.74 1531.92 1180 1528.23 Q1177.26 1524.5 1172.58 1524.5 M1172.58 1519.54 Q1180.22 1519.54 1184.58 1524.5 Q1188.94 1529.47 1188.94 1538.25 Q1188.94 1547 1184.58 1552 Q1180.22 1556.97 1172.58 1556.97 Q1164.91 1556.97 1160.55 1552 Q1156.22 1547 1156.22 1538.25 Q1156.22 1529.47 1160.55 1524.5 Q1164.91 1519.54 1172.58 1519.54 Z" fill="#000000" fill-rule="evenodd" fill-opacity="1" /><path clip-path="url(#clip190)" d="M 0 0 M1215.74 1525.87 Q1214.76 1525.3 1213.58 1525.04 Q1212.43 1524.76 1211.03 1524.76 Q1206.07 1524.76 1203.39 1528 Q1200.75 1531.22 1200.75 1537.27 L1200.75 1556.04 L1194.86 1556.04 L1194.86 1520.4 L1200.75 1520.4 L1200.75 1525.93 Q1202.6 1522.69 1205.56 1521.13 Q1208.52 1519.54 1212.75 1519.54 Q1213.36 1519.54 1214.09 1519.63 Q1214.82 1519.7 1215.71 1519.85 L1215.74 1525.87 Z" fill="#000000" fill-rule="evenodd" fill-opacity="1" /><path clip-path="url(#clip190)" d="M 0 0 M1256.42 1524.5 Q1251.71 1524.5 1248.97 1528.19 Q1246.24 1531.85 1246.24 1538.25 Q1246.24 1544.65 1248.94 1548.34 Q1251.68 1552 1256.42 1552 Q1261.1 1552 1263.84 1548.31 Q1266.57 1544.62 1266.57 1538.25 Q1266.57 1531.92 1263.84 1528.23 Q1261.1 1524.5 1256.42 1524.5 M1256.42 1519.54 Q1264.06 1519.54 1268.42 1524.5 Q1272.78 1529.47 1272.78 1538.25 Q1272.78 1547 1268.42 1552 Q1264.06 1556.97 1256.42 1556.97 Q1248.75 1556.97 1244.39 1552 Q1240.06 1547 1240.06 1538.25 Q1240.06 1529.47 1244.39 1524.5 Q1248.75 1519.54 1256.42 1519.54 Z" fill="#000000" fill-rule="evenodd" fill-opacity="1" /><path clip-path="url(#clip190)" d="M 0 0 M1296.97 1506.52 L1296.97 1511.39 L1291.37 1511.39 Q1288.22 1511.39 1286.98 1512.66 Q1285.77 1513.93 1285.77 1517.24 L1285.77 1520.4 L1295.41 1520.4 L1295.41 1524.95 L1285.77 1524.95 L1285.77 1556.04 L1279.88 1556.04 L1279.88 1524.95 L1274.28 1524.95 L1274.28 1520.4 L1279.88 1520.4 L1279.88 1517.91 Q1279.88 1511.96 1282.65 1509.26 Q1285.42 1506.52 1291.43 1506.52 L1296.97 1506.52 Z" fill="#000000" fill-rule="evenodd" fill-opacity="1" /><path clip-path="url(#clip190)" d="M 0 0 M1329.63 1510.27 L1329.63 1520.4 L1341.69 1520.4 L1341.69 1524.95 L1329.63 1524.95 L1329.63 1544.3 Q1329.63 1548.66 1330.8 1549.9 Q1332.01 1551.14 1335.67 1551.14 L1341.69 1551.14 L1341.69 1556.04 L1335.67 1556.04 Q1328.89 1556.04 1326.32 1553.53 Q1323.74 1550.98 1323.74 1544.3 L1323.74 1524.95 L1319.44 1524.95 L1319.44 1520.4 L1323.74 1520.4 L1323.74 1510.27 L1329.63 1510.27 Z" fill="#000000" fill-rule="evenodd" fill-opacity="1" /><path clip-path="url(#clip190)" d="M 0 0 M1377.47 1534.53 L1377.47 1556.04 L1371.61 1556.04 L1371.61 1534.72 Q1371.61 1529.66 1369.64 1527.14 Q1367.66 1524.63 1363.72 1524.63 Q1358.97 1524.63 1356.24 1527.65 Q1353.5 1530.68 1353.5 1535.9 L1353.5 1556.04 L1347.61 1556.04 L1347.61 1506.52 L1353.5 1506.52 L1353.5 1525.93 Q1355.6 1522.72 1358.43 1521.13 Q1361.3 1519.54 1365.02 1519.54 Q1371.16 1519.54 1374.31 1523.36 Q1377.47 1527.14 1377.47 1534.53 Z" fill="#000000" fill-rule="evenodd" fill-opacity="1" /><path clip-path="url(#clip190)" d="M 0 0 M1414.1 1536.76 L1414.1 1539.62 L1387.17 1539.62 Q1387.55 1545.67 1390.8 1548.85 Q1394.08 1552 1399.9 1552 Q1403.28 1552 1406.43 1551.17 Q1409.61 1550.35 1412.73 1548.69 L1412.73 1554.23 Q1409.58 1555.57 1406.27 1556.27 Q1402.96 1556.97 1399.55 1556.97 Q1391.02 1556.97 1386.03 1552 Q1381.06 1547.04 1381.06 1538.57 Q1381.06 1529.82 1385.77 1524.69 Q1390.51 1519.54 1398.54 1519.54 Q1405.73 1519.54 1409.9 1524.18 Q1414.1 1528.8 1414.1 1536.76 M1408.24 1535.04 Q1408.18 1530.23 1405.54 1527.37 Q1402.93 1524.5 1398.6 1524.5 Q1393.7 1524.5 1390.74 1527.27 Q1387.81 1530.04 1387.36 1535.07 L1408.24 1535.04 Z" fill="#000000" fill-rule="evenodd" fill-opacity="1" /><path clip-path="url(#clip190)" d="M 0 0 M1466.55 1538.25 Q1466.55 1531.79 1463.88 1528.13 Q1461.24 1524.44 1456.59 1524.44 Q1451.94 1524.44 1449.27 1528.13 Q1446.63 1531.79 1446.63 1538.25 Q1446.63 1544.71 1449.27 1548.4 Q1451.94 1552.07 1456.59 1552.07 Q1461.24 1552.07 1463.88 1548.4 Q1466.55 1544.71 1466.55 1538.25 M1446.63 1525.81 Q1448.47 1522.62 1451.28 1521.1 Q1454.11 1519.54 1458.02 1519.54 Q1464.52 1519.54 1468.56 1524.69 Q1472.63 1529.85 1472.63 1538.25 Q1472.63 1546.65 1468.56 1551.81 Q1464.52 1556.97 1458.02 1556.97 Q1454.11 1556.97 1451.28 1555.44 Q1448.47 1553.88 1446.63 1550.7 L1446.63 1556.04 L1440.74 1556.04 L1440.74 1506.52 L1446.63 1506.52 L1446.63 1525.81 Z" fill="#000000" fill-rule="evenodd" fill-opacity="1" /><path clip-path="url(#clip190)" d="M 0 0 M1509.27 1536.76 L1509.27 1539.62 L1482.34 1539.62 Q1482.72 1545.67 1485.97 1548.85 Q1489.25 1552 1495.07 1552 Q1498.45 1552 1501.6 1551.17 Q1504.78 1550.35 1507.9 1548.69 L1507.9 1554.23 Q1504.75 1555.57 1501.44 1556.27 Q1498.13 1556.97 1494.72 1556.97 Q1486.19 1556.97 1481.19 1552 Q1476.23 1547.04 1476.23 1538.57 Q1476.23 1529.82 1480.94 1524.69 Q1485.68 1519.54 1493.7 1519.54 Q1500.9 1519.54 1505.07 1524.18 Q1509.27 1528.8 1509.27 1536.76 M1503.41 1535.04 Q1503.35 1530.23 1500.71 1527.37 Q1498.1 1524.5 1493.77 1524.5 Q1488.86 1524.5 1485.9 1527.27 Q1482.98 1530.04 1482.53 1535.07 L1503.41 1535.04 Z" fill="#000000" fill-rule="evenodd" fill-opacity="1" /><path clip-path="url(#clip190)" d="M 0 0 M1538.14 1521.45 L1538.14 1526.98 Q1535.65 1525.71 1532.98 1525.07 Q1530.31 1524.44 1527.44 1524.44 Q1523.08 1524.44 1520.88 1525.77 Q1518.72 1527.11 1518.72 1529.79 Q1518.72 1531.82 1520.28 1533 Q1521.84 1534.15 1526.55 1535.2 L1528.56 1535.64 Q1534.79 1536.98 1537.4 1539.43 Q1540.05 1541.85 1540.05 1546.21 Q1540.05 1551.17 1536.1 1554.07 Q1532.18 1556.97 1525.31 1556.97 Q1522.44 1556.97 1519.32 1556.39 Q1516.24 1555.85 1512.8 1554.74 L1512.8 1548.69 Q1516.05 1550.38 1519.2 1551.24 Q1522.35 1552.07 1525.44 1552.07 Q1529.57 1552.07 1531.8 1550.66 Q1534.03 1549.23 1534.03 1546.65 Q1534.03 1544.27 1532.41 1542.99 Q1530.81 1541.72 1525.37 1540.54 L1523.34 1540.07 Q1517.89 1538.92 1515.47 1536.56 Q1513.05 1534.18 1513.05 1530.04 Q1513.05 1525.01 1516.62 1522.27 Q1520.18 1519.54 1526.74 1519.54 Q1529.99 1519.54 1532.85 1520.01 Q1535.72 1520.49 1538.14 1521.45 Z" fill="#000000" fill-rule="evenodd" fill-opacity="1" /><path clip-path="url(#clip190)" d="M 0 0 M1551.98 1510.27 L1551.98 1520.4 L1564.04 1520.4 L1564.04 1524.95 L1551.98 1524.95 L1551.98 1544.3 Q1551.98 1548.66 1553.16 1549.9 Q1554.37 1551.14 1558.03 1551.14 L1564.04 1551.14 L1564.04 1556.04 L1558.03 1556.04 Q1551.25 1556.04 1548.67 1553.53 Q1546.09 1550.98 1546.09 1544.3 L1546.09 1524.95 L1541.8 1524.95 L1541.8 1520.4 L1546.09 1520.4 L1546.09 1510.27 L1551.98 1510.27 Z" fill="#000000" fill-rule="evenodd" fill-opacity="1" /><path clip-path="url(#clip190)" d="M 0 0 M1604.98 1506.58 Q1600.71 1513.9 1598.64 1521.06 Q1596.57 1528.23 1596.57 1535.58 Q1596.57 1542.93 1598.64 1550.16 Q1600.74 1557.35 1604.98 1564.64 L1599.88 1564.64 Q1595.11 1557.16 1592.72 1549.93 Q1590.37 1542.71 1590.37 1535.58 Q1590.37 1528.48 1592.72 1521.29 Q1595.08 1514.09 1599.88 1506.58 L1604.98 1506.58 Z" fill="#000000" fill-rule="evenodd" fill-opacity="1" /><path clip-path="url(#clip190)" d="M 0 0 M1611.12 1506.52 L1616.97 1506.52 L1616.97 1556.04 L1611.12 1556.04 L1611.12 1506.52 Z" fill="#000000" fill-rule="evenodd" fill-opacity="1" /><path clip-path="url(#clip190)" d="M 0 0 M1636.93 1524.5 Q1632.22 1524.5 1629.48 1528.19 Q1626.75 1531.85 1626.75 1538.25 Q1626.75 1544.65 1629.45 1548.34 Q1632.19 1552 1636.93 1552 Q1641.61 1552 1644.35 1548.31 Q1647.08 1544.62 1647.08 1538.25 Q1647.08 1531.92 1644.35 1528.23 Q1641.61 1524.5 1636.93 1524.5 M1636.93 1519.54 Q1644.57 1519.54 1648.93 1524.5 Q1653.29 1529.47 1653.29 1538.25 Q1653.29 1547 1648.93 1552 Q1644.57 1556.97 1636.93 1556.97 Q1629.26 1556.97 1624.9 1552 Q1620.57 1547 1620.57 1538.25 Q1620.57 1529.47 1624.9 1524.5 Q1629.26 1519.54 1636.93 1519.54 Z" fill="#000000" fill-rule="evenodd" fill-opacity="1" /><path clip-path="url(#clip190)" d="M 0 0 M1682.89 1537.81 Q1682.89 1531.44 1680.25 1527.94 Q1677.64 1524.44 1672.9 1524.44 Q1668.19 1524.44 1665.55 1527.94 Q1662.94 1531.44 1662.94 1537.81 Q1662.94 1544.14 1665.55 1547.64 Q1668.19 1551.14 1672.9 1551.14 Q1677.64 1551.14 1680.25 1547.64 Q1682.89 1544.14 1682.89 1537.81 M1688.75 1551.62 Q1688.75 1560.72 1684.71 1565.15 Q1680.66 1569.6 1672.32 1569.6 Q1669.24 1569.6 1666.5 1569.13 Q1663.76 1568.68 1661.18 1567.72 L1661.18 1562.03 Q1663.76 1563.43 1666.28 1564.1 Q1668.79 1564.76 1671.4 1564.76 Q1677.16 1564.76 1680.03 1561.74 Q1682.89 1558.75 1682.89 1552.67 L1682.89 1549.77 Q1681.08 1552.92 1678.24 1554.48 Q1675.41 1556.04 1671.47 1556.04 Q1664.91 1556.04 1660.9 1551.05 Q1656.89 1546.05 1656.89 1537.81 Q1656.89 1529.53 1660.9 1524.53 Q1664.91 1519.54 1671.47 1519.54 Q1675.41 1519.54 1678.24 1521.1 Q1681.08 1522.66 1682.89 1525.81 L1682.89 1520.4 L1688.75 1520.4 L1688.75 1551.62 Z" fill="#000000" fill-rule="evenodd" fill-opacity="1" /><path clip-path="url(#clip190)" d="M 0 0 M1738.34 1521.45 L1738.34 1526.98 Q1735.85 1525.71 1733.18 1525.07 Q1730.51 1524.44 1727.64 1524.44 Q1723.28 1524.44 1721.09 1525.77 Q1718.92 1527.11 1718.92 1529.79 Q1718.92 1531.82 1720.48 1533 Q1722.04 1534.15 1726.75 1535.2 L1728.76 1535.64 Q1735 1536.98 1737.6 1539.43 Q1740.25 1541.85 1740.25 1546.21 Q1740.25 1551.17 1736.3 1554.07 Q1732.39 1556.97 1725.51 1556.97 Q1722.65 1556.97 1719.53 1556.39 Q1716.44 1555.85 1713 1554.74 L1713 1548.69 Q1716.25 1550.38 1719.4 1551.24 Q1722.55 1552.07 1725.64 1552.07 Q1729.78 1552.07 1732 1550.66 Q1734.23 1549.23 1734.23 1546.65 Q1734.23 1544.27 1732.61 1542.99 Q1731.02 1541.72 1725.57 1540.54 L1723.54 1540.07 Q1718.09 1538.92 1715.68 1536.56 Q1713.26 1534.18 1713.26 1530.04 Q1713.26 1525.01 1716.82 1522.27 Q1720.39 1519.54 1726.94 1519.54 Q1730.19 1519.54 1733.05 1520.01 Q1735.92 1520.49 1738.34 1521.45 Z" fill="#000000" fill-rule="evenodd" fill-opacity="1" /><path clip-path="url(#clip190)" d="M 0 0 M1772.04 1521.76 L1772.04 1527.24 Q1769.56 1525.87 1767.05 1525.2 Q1764.56 1524.5 1762.02 1524.5 Q1756.32 1524.5 1753.17 1528.13 Q1750.02 1531.73 1750.02 1538.25 Q1750.02 1544.78 1753.17 1548.4 Q1756.32 1552 1762.02 1552 Q1764.56 1552 1767.05 1551.33 Q1769.56 1550.63 1772.04 1549.26 L1772.04 1554.68 Q1769.59 1555.82 1766.95 1556.39 Q1764.34 1556.97 1761.38 1556.97 Q1753.33 1556.97 1748.59 1551.91 Q1743.84 1546.85 1743.84 1538.25 Q1743.84 1529.53 1748.62 1524.53 Q1753.42 1519.54 1761.76 1519.54 Q1764.47 1519.54 1767.05 1520.11 Q1769.62 1520.65 1772.04 1521.76 Z" fill="#000000" fill-rule="evenodd" fill-opacity="1" /><path clip-path="url(#clip190)" d="M 0 0 M1794.39 1538.12 Q1787.29 1538.12 1784.55 1539.75 Q1781.81 1541.37 1781.81 1545.29 Q1781.81 1548.4 1783.85 1550.25 Q1785.92 1552.07 1789.45 1552.07 Q1794.32 1552.07 1797.25 1548.63 Q1800.21 1545.16 1800.21 1539.43 L1800.21 1538.12 L1794.39 1538.12 M1806.07 1535.71 L1806.07 1556.04 L1800.21 1556.04 L1800.21 1550.63 Q1798.21 1553.88 1795.21 1555.44 Q1792.22 1556.97 1787.89 1556.97 Q1782.42 1556.97 1779.17 1553.91 Q1775.96 1550.82 1775.96 1545.67 Q1775.96 1539.65 1779.97 1536.6 Q1784.01 1533.54 1792 1533.54 L1800.21 1533.54 L1800.21 1532.97 Q1800.21 1528.93 1797.54 1526.73 Q1794.9 1524.5 1790.09 1524.5 Q1787.03 1524.5 1784.14 1525.23 Q1781.24 1525.97 1778.57 1527.43 L1778.57 1522.02 Q1781.78 1520.78 1784.81 1520.17 Q1787.83 1519.54 1790.69 1519.54 Q1798.43 1519.54 1802.25 1523.55 Q1806.07 1527.56 1806.07 1535.71 Z" fill="#000000" fill-rule="evenodd" fill-opacity="1" /><path clip-path="url(#clip190)" d="M 0 0 M1812.21 1506.52 L1818.07 1506.52 L1818.07 1556.04 L1812.21 1556.04 L1812.21 1506.52 Z" fill="#000000" fill-rule="evenodd" fill-opacity="1" /><path clip-path="url(#clip190)" d="M 0 0 M1854.7 1536.76 L1854.7 1539.62 L1827.78 1539.62 Q1828.16 1545.67 1831.4 1548.85 Q1834.68 1552 1840.51 1552 Q1843.88 1552 1847.03 1551.17 Q1850.21 1550.35 1853.33 1548.69 L1853.33 1554.23 Q1850.18 1555.57 1846.87 1556.27 Q1843.56 1556.97 1840.16 1556.97 Q1831.63 1556.97 1826.63 1552 Q1821.66 1547.04 1821.66 1538.57 Q1821.66 1529.82 1826.37 1524.69 Q1831.12 1519.54 1839.14 1519.54 Q1846.33 1519.54 1850.5 1524.18 Q1854.7 1528.8 1854.7 1536.76 M1848.85 1535.04 Q1848.78 1530.23 1846.14 1527.37 Q1843.53 1524.5 1839.2 1524.5 Q1834.3 1524.5 1831.34 1527.27 Q1828.41 1530.04 1827.97 1535.07 L1848.85 1535.04 Z" fill="#000000" fill-rule="evenodd" fill-opacity="1" /><path clip-path="url(#clip190)" d="M 0 0 M1859.92 1506.58 L1865.01 1506.58 Q1869.79 1514.09 1872.14 1521.29 Q1874.53 1528.48 1874.53 1535.58 Q1874.53 1542.71 1872.14 1549.93 Q1869.79 1557.16 1865.01 1564.64 L1859.92 1564.64 Q1864.16 1557.35 1866.22 1550.16 Q1868.32 1542.93 1868.32 1535.58 Q1868.32 1528.23 1866.22 1521.06 Q1864.16 1513.9 1859.92 1506.58 Z" fill="#000000" fill-rule="evenodd" fill-opacity="1" /><path clip-path="url(#clip190)" d="M 0 0 M45.7677 1067.22 L63.6235 1067.22 L63.6235 1059.13 Q63.6235 1054.64 61.3 1052.19 Q58.9765 1049.74 54.6797 1049.74 Q50.4147 1049.74 48.0912 1052.19 Q45.7677 1054.64 45.7677 1059.13 L45.7677 1067.22 M40.4842 1073.64 L40.4842 1059.13 Q40.4842 1051.14 44.1126 1047.07 Q47.7092 1042.96 54.6797 1042.96 Q61.7138 1042.96 65.3104 1047.07 Q68.907 1051.14 68.907 1059.13 L68.907 1067.22 L88.0042 1067.22 L88.0042 1073.64 L40.4842 1073.64 Z" fill="#000000" fill-rule="evenodd" fill-opacity="1" /><path clip-path="url(#clip190)" d="M 0 0 M57.8307 1017.31 Q57.2578 1018.29 57.0032 1019.47 Q56.7167 1020.62 56.7167 1022.02 Q56.7167 1026.98 59.9632 1029.66 Q63.1779 1032.3 69.2253 1032.3 L88.0042 1032.3 L88.0042 1038.19 L52.3562 1038.19 L52.3562 1032.3 L57.8944 1032.3 Q54.6479 1030.45 53.0883 1027.49 Q51.4968 1024.53 51.4968 1020.3 Q51.4968 1019.7 51.5923 1018.96 Q51.656 1018.23 51.8151 1017.34 L57.8307 1017.31 Z" fill="#000000" fill-rule="evenodd" fill-opacity="1" /><path clip-path="url(#clip190)" d="M 0 0 M56.4621 998.784 Q56.4621 1003.49 60.1542 1006.23 Q63.8145 1008.97 70.212 1008.97 Q76.6095 1008.97 80.3017 1006.26 Q83.9619 1003.53 83.9619 998.784 Q83.9619 994.105 80.2698 991.368 Q76.5777 988.631 70.212 988.631 Q63.8781 988.631 60.186 991.368 Q56.4621 994.105 56.4621 998.784 M51.4968 998.784 Q51.4968 991.145 56.4621 986.785 Q61.4273 982.424 70.212 982.424 Q78.9649 982.424 83.9619 986.785 Q88.9272 991.145 88.9272 998.784 Q88.9272 1006.45 83.9619 1010.82 Q78.9649 1015.14 70.212 1015.14 Q61.4273 1015.14 56.4621 1010.82 Q51.4968 1006.45 51.4968 998.784 Z" fill="#000000" fill-rule="evenodd" fill-opacity="1" /><path clip-path="url(#clip190)" d="M 0 0 M82.657 970.616 L101.563 970.616 L101.563 976.504 L52.3562 976.504 L52.3562 970.616 L57.7671 970.616 Q54.5842 968.77 53.0564 965.969 Q51.4968 963.136 51.4968 959.221 Q51.4968 952.728 56.6531 948.686 Q61.8093 944.612 70.212 944.612 Q78.6147 944.612 83.771 948.686 Q88.9272 952.728 88.9272 959.221 Q88.9272 963.136 87.3994 965.969 Q85.8398 968.77 82.657 970.616 M70.212 950.691 Q63.7508 950.691 60.0905 953.365 Q56.3984 956.007 56.3984 960.653 Q56.3984 965.3 60.0905 967.974 Q63.7508 970.616 70.212 970.616 Q76.6732 970.616 80.3653 967.974 Q84.0256 965.3 84.0256 960.653 Q84.0256 956.007 80.3653 953.365 Q76.6732 950.691 70.212 950.691 Z" fill="#000000" fill-rule="evenodd" fill-opacity="1" /><path clip-path="url(#clip190)" d="M 0 0 M56.4621 924.655 Q56.4621 929.366 60.1542 932.103 Q63.8145 934.841 70.212 934.841 Q76.6095 934.841 80.3017 932.135 Q83.9619 929.398 83.9619 924.655 Q83.9619 919.977 80.2698 917.239 Q76.5777 914.502 70.212 914.502 Q63.8781 914.502 60.186 917.239 Q56.4621 919.977 56.4621 924.655 M51.4968 924.655 Q51.4968 917.017 56.4621 912.656 Q61.4273 908.296 70.212 908.296 Q78.9649 908.296 83.9619 912.656 Q88.9272 917.017 88.9272 924.655 Q88.9272 932.326 83.9619 936.687 Q78.9649 941.015 70.212 941.015 Q61.4273 941.015 56.4621 936.687 Q51.4968 932.326 51.4968 924.655 Z" fill="#000000" fill-rule="evenodd" fill-opacity="1" /><path clip-path="url(#clip190)" d="M 0 0 M57.8307 881.496 Q57.2578 882.483 57.0032 883.66 Q56.7167 884.806 56.7167 886.207 Q56.7167 891.172 59.9632 893.845 Q63.1779 896.487 69.2253 896.487 L88.0042 896.487 L88.0042 902.375 L52.3562 902.375 L52.3562 896.487 L57.8944 896.487 Q54.6479 894.641 53.0883 891.681 Q51.4968 888.721 51.4968 884.488 Q51.4968 883.883 51.5923 883.151 Q51.656 882.419 51.8151 881.528 L57.8307 881.496 Z" fill="#000000" fill-rule="evenodd" fill-opacity="1" /><path clip-path="url(#clip190)" d="M 0 0 M42.2347 869.56 L52.3562 869.56 L52.3562 857.497 L56.9077 857.497 L56.9077 869.56 L76.2594 869.56 Q80.6199 869.56 81.8613 868.383 Q83.1026 867.173 83.1026 863.513 L83.1026 857.497 L88.0042 857.497 L88.0042 863.513 Q88.0042 870.292 85.4897 872.87 Q82.9434 875.448 76.2594 875.448 L56.9077 875.448 L56.9077 879.745 L52.3562 879.745 L52.3562 875.448 L42.2347 875.448 L42.2347 869.56 Z" fill="#000000" fill-rule="evenodd" fill-opacity="1" /><path clip-path="url(#clip190)" d="M 0 0 M52.3562 851.354 L52.3562 845.498 L88.0042 845.498 L88.0042 851.354 L52.3562 851.354 M38.479 851.354 L38.479 845.498 L45.895 845.498 L45.895 851.354 L38.479 851.354 Z" fill="#000000" fill-rule="evenodd" fill-opacity="1" /><path clip-path="url(#clip190)" d="M 0 0 M56.4621 825.541 Q56.4621 830.252 60.1542 832.989 Q63.8145 835.726 70.212 835.726 Q76.6095 835.726 80.3017 833.021 Q83.9619 830.284 83.9619 825.541 Q83.9619 820.863 80.2698 818.125 Q76.5777 815.388 70.212 815.388 Q63.8781 815.388 60.186 818.125 Q56.4621 820.863 56.4621 825.541 M51.4968 825.541 Q51.4968 817.902 56.4621 813.542 Q61.4273 809.181 70.212 809.181 Q78.9649 809.181 83.9619 813.542 Q88.9272 817.902 88.9272 825.541 Q88.9272 833.212 83.9619 837.573 Q78.9649 841.901 70.212 841.901 Q61.4273 841.901 56.4621 837.573 Q51.4968 833.212 51.4968 825.541 Z" fill="#000000" fill-rule="evenodd" fill-opacity="1" /><path clip-path="url(#clip190)" d="M 0 0 M66.4881 773.406 L88.0042 773.406 L88.0042 779.263 L66.679 779.263 Q61.6183 779.263 59.1038 781.236 Q56.5894 783.209 56.5894 787.156 Q56.5894 791.899 59.6131 794.636 Q62.6368 797.373 67.8567 797.373 L88.0042 797.373 L88.0042 803.261 L52.3562 803.261 L52.3562 797.373 L57.8944 797.373 Q54.6797 795.272 53.0883 792.44 Q51.4968 789.575 51.4968 785.851 Q51.4968 779.708 55.3163 776.557 Q59.1038 773.406 66.4881 773.406 Z" fill="#000000" fill-rule="evenodd" fill-opacity="1" /><path clip-path="url(#clip190)" d="M 0 0 M56.4621 732.729 Q56.4621 737.44 60.1542 740.177 Q63.8145 742.914 70.212 742.914 Q76.6095 742.914 80.3017 740.209 Q83.9619 737.472 83.9619 732.729 Q83.9619 728.051 80.2698 725.313 Q76.5777 722.576 70.212 722.576 Q63.8781 722.576 60.186 725.313 Q56.4621 728.051 56.4621 732.729 M51.4968 732.729 Q51.4968 725.09 56.4621 720.73 Q61.4273 716.369 70.212 716.369 Q78.9649 716.369 83.9619 720.73 Q88.9272 725.09 88.9272 732.729 Q88.9272 740.4 83.9619 744.761 Q78.9649 749.089 70.212 749.089 Q61.4273 749.089 56.4621 744.761 Q51.4968 740.4 51.4968 732.729 Z" fill="#000000" fill-rule="evenodd" fill-opacity="1" /><path clip-path="url(#clip190)" d="M 0 0 M38.479 692.18 L43.3487 692.18 L43.3487 697.782 Q43.3487 700.933 44.6219 702.174 Q45.895 703.383 49.2052 703.383 L52.3562 703.383 L52.3562 693.739 L56.9077 693.739 L56.9077 703.383 L88.0042 703.383 L88.0042 709.272 L56.9077 709.272 L56.9077 714.874 L52.3562 714.874 L52.3562 709.272 L49.8736 709.272 Q43.9216 709.272 41.2162 706.503 Q38.479 703.734 38.479 697.718 L38.479 692.18 Z" fill="#000000" fill-rule="evenodd" fill-opacity="1" /><path clip-path="url(#clip190)" d="M 0 0 M82.657 659.651 L101.563 659.651 L101.563 665.539 L52.3562 665.539 L52.3562 659.651 L57.7671 659.651 Q54.5842 657.805 53.0564 655.004 Q51.4968 652.171 51.4968 648.256 Q51.4968 641.763 56.6531 637.721 Q61.8093 633.647 70.212 633.647 Q78.6147 633.647 83.771 637.721 Q88.9272 641.763 88.9272 648.256 Q88.9272 652.171 87.3994 655.004 Q85.8398 657.805 82.657 659.651 M70.212 639.726 Q63.7508 639.726 60.0905 642.4 Q56.3984 645.042 56.3984 649.689 Q56.3984 654.336 60.0905 657.009 Q63.7508 659.651 70.212 659.651 Q76.6732 659.651 80.3653 657.009 Q84.0256 654.336 84.0256 649.689 Q84.0256 645.042 80.3653 642.4 Q76.6732 639.726 70.212 639.726 Z" fill="#000000" fill-rule="evenodd" fill-opacity="1" /><path clip-path="url(#clip190)" d="M 0 0 M57.8307 606.847 Q57.2578 607.834 57.0032 609.012 Q56.7167 610.158 56.7167 611.558 Q56.7167 616.523 59.9632 619.197 Q63.1779 621.839 69.2253 621.839 L88.0042 621.839 L88.0042 627.727 L52.3562 627.727 L52.3562 621.839 L57.8944 621.839 Q54.6479 619.993 53.0883 617.033 Q51.4968 614.073 51.4968 609.839 Q51.4968 609.235 51.5923 608.503 Q51.656 607.771 51.8151 606.879 L57.8307 606.847 Z" fill="#000000" fill-rule="evenodd" fill-opacity="1" /><path clip-path="url(#clip190)" d="M 0 0 M56.4621 588.323 Q56.4621 593.034 60.1542 595.771 Q63.8145 598.508 70.212 598.508 Q76.6095 598.508 80.3017 595.803 Q83.9619 593.066 83.9619 588.323 Q83.9619 583.644 80.2698 580.907 Q76.5777 578.17 70.212 578.17 Q63.8781 578.17 60.186 580.907 Q56.4621 583.644 56.4621 588.323 M51.4968 588.323 Q51.4968 580.684 56.4621 576.324 Q61.4273 571.963 70.212 571.963 Q78.9649 571.963 83.9619 576.324 Q88.9272 580.684 88.9272 588.323 Q88.9272 595.994 83.9619 600.354 Q78.9649 604.683 70.212 604.683 Q61.4273 604.683 56.4621 600.354 Q51.4968 595.994 51.4968 588.323 Z" fill="#000000" fill-rule="evenodd" fill-opacity="1" /><path clip-path="url(#clip190)" d="M 0 0 M70.212 540.23 Q63.7508 540.23 60.0905 542.904 Q56.3984 545.546 56.3984 550.193 Q56.3984 554.84 60.0905 557.513 Q63.7508 560.155 70.212 560.155 Q76.6732 560.155 80.3653 557.513 Q84.0256 554.84 84.0256 550.193 Q84.0256 545.546 80.3653 542.904 Q76.6732 540.23 70.212 540.23 M57.7671 560.155 Q54.5842 558.309 53.0564 555.508 Q51.4968 552.675 51.4968 548.76 Q51.4968 542.267 56.6531 538.225 Q61.8093 534.151 70.212 534.151 Q78.6147 534.151 83.771 538.225 Q88.9272 542.267 88.9272 548.76 Q88.9272 552.675 87.3994 555.508 Q85.8398 558.309 82.657 560.155 L88.0042 560.155 L88.0042 566.043 L38.479 566.043 L38.479 560.155 L57.7671 560.155 Z" fill="#000000" fill-rule="evenodd" fill-opacity="1" /><path clip-path="url(#clip190)" d="M 0 0 M38.479 528.008 L38.479 522.152 L88.0042 522.152 L88.0042 528.008 L38.479 528.008 Z" fill="#000000" fill-rule="evenodd" fill-opacity="1" /><path clip-path="url(#clip190)" d="M 0 0 M68.7161 485.517 L71.5806 485.517 L71.5806 512.444 Q77.6281 512.062 80.8109 508.816 Q83.9619 505.537 83.9619 499.713 Q83.9619 496.339 83.1344 493.188 Q82.3069 490.005 80.6518 486.886 L86.1899 486.886 Q87.5267 490.037 88.227 493.347 Q88.9272 496.657 88.9272 500.063 Q88.9272 508.593 83.9619 513.59 Q78.9967 518.555 70.5303 518.555 Q61.7774 518.555 56.6531 513.845 Q51.4968 509.102 51.4968 501.081 Q51.4968 493.888 56.1438 489.718 Q60.7589 485.517 68.7161 485.517 M66.9973 491.374 Q62.1912 491.437 59.3266 494.079 Q56.4621 496.689 56.4621 501.018 Q56.4621 505.919 59.2312 508.879 Q62.0002 511.807 67.0292 512.253 L66.9973 491.374 Z" fill="#000000" fill-rule="evenodd" fill-opacity="1" /><path clip-path="url(#clip190)" d="M 0 0 M59.1993 451.62 Q55.2526 449.424 53.3747 446.368 Q51.4968 443.312 51.4968 439.175 Q51.4968 433.605 55.4117 430.581 Q59.2948 427.557 66.4881 427.557 L88.0042 427.557 L88.0042 433.446 L66.679 433.446 Q61.5546 433.446 59.072 435.26 Q56.5894 437.074 56.5894 440.798 Q56.5894 445.35 59.6131 447.991 Q62.6368 450.633 67.8567 450.633 L88.0042 450.633 L88.0042 456.521 L66.679 456.521 Q61.5228 456.521 59.072 458.336 Q56.5894 460.15 56.5894 463.937 Q56.5894 468.425 59.6449 471.067 Q62.6686 473.709 67.8567 473.709 L88.0042 473.709 L88.0042 479.597 L52.3562 479.597 L52.3562 473.709 L57.8944 473.709 Q54.616 471.704 53.0564 468.903 Q51.4968 466.102 51.4968 462.25 Q51.4968 458.367 53.4702 455.662 Q55.4436 452.925 59.1993 451.62 Z" fill="#000000" fill-rule="evenodd" fill-opacity="1" /><path clip-path="url(#clip190)" d="M 0 0 M53.4065 398.689 L58.9447 398.689 Q57.6716 401.172 57.035 403.845 Q56.3984 406.519 56.3984 409.383 Q56.3984 413.744 57.7352 415.94 Q59.072 418.104 61.7456 418.104 Q63.7826 418.104 64.9603 416.545 Q66.1061 414.985 67.1565 410.274 L67.6021 408.269 Q68.9389 402.031 71.3897 399.421 Q73.8086 396.779 78.1691 396.779 Q83.1344 396.779 86.0308 400.726 Q88.9272 404.641 88.9272 411.516 Q88.9272 414.38 88.3543 417.5 Q87.8132 420.587 86.6992 424.024 L80.6518 424.024 Q82.3387 420.778 83.198 417.627 Q84.0256 414.476 84.0256 411.388 Q84.0256 407.251 82.6251 405.023 Q81.1929 402.795 78.6147 402.795 Q76.2276 402.795 74.9545 404.418 Q73.6813 406.009 72.5037 411.452 L72.0262 413.489 Q70.8804 418.932 68.5251 421.351 Q66.138 423.77 62.0002 423.77 Q56.9713 423.77 54.2341 420.205 Q51.4968 416.64 51.4968 410.084 Q51.4968 406.837 51.9743 403.972 Q52.4517 401.108 53.4065 398.689 Z" fill="#000000" fill-rule="evenodd" fill-opacity="1" /><polyline clip-path="url(#clip192)" style="stroke:#009af9; stroke-width:4; stroke-opacity:1; fill:none" points="
  238.13,547.584 457.945,547.584 457.945,422.499 1719.82,422.499 1719.82,297.414 1794.86,297.414 1794.86,172.329 4082.9,172.329 4082.9,47.2441 
  "/>
<polyline clip-path="url(#clip192)" style="stroke:#e26f46; stroke-width:4; stroke-opacity:1; fill:none" points="
  238.13,1173.01 299.637,1173.01 299.637,1047.92 425.209,1047.92 425.209,922.84 579.944,922.84 579.944,797.755 1103.76,797.755 1103.76,672.669 1363.48,672.669 
  1363.48,547.584 1408.73,547.584 1408.73,422.499 1712.91,422.499 1712.91,297.414 1870.84,297.414 1870.84,172.329 4082.9,172.329 4082.9,47.2441 
  "/>
<polyline clip-path="url(#clip192)" style="stroke:#3da44d; stroke-width:4; stroke-opacity:1; fill:none" points="
  238.13,1298.09 365.899,1298.09 365.899,1173.01 484.459,1173.01 484.459,1047.92 629.141,1047.92 629.141,922.84 955.546,922.84 955.546,797.755 1171.03,797.755 
  1171.03,672.669 1279.76,672.669 1279.76,547.584 1715.78,547.584 1715.78,422.499 1873.38,422.499 1873.38,297.414 2160.52,297.414 2160.52,172.329 4082.9,172.329 
  4082.9,47.2441 
  "/>
<path clip-path="url(#clip190)" d="
M1883.79 372.684 L2280.76 372.684 L2280.76 130.764 L1883.79 130.764  Z
  " fill="#ffffff" fill-rule="evenodd" fill-opacity="1"/>
<polyline clip-path="url(#clip190)" style="stroke:#000000; stroke-width:4; stroke-opacity:1; fill:none" points="
  1883.79,372.684 2280.76,372.684 2280.76,130.764 1883.79,130.764 1883.79,372.684 
  "/>
<polyline clip-path="url(#clip190)" style="stroke:#009af9; stroke-width:4; stroke-opacity:1; fill:none" points="
  1907.79,191.244 2051.79,191.244 
  "/>
<path clip-path="url(#clip190)" d="M 0 0 M2089.19 195.492 Q2084.03 195.492 2082.04 196.672 Q2080.05 197.853 2080.05 200.7 Q2080.05 202.969 2081.53 204.311 Q2083.03 205.631 2085.6 205.631 Q2089.15 205.631 2091.28 203.131 Q2093.43 200.607 2093.43 196.441 L2093.43 195.492 L2089.19 195.492 M2097.69 193.733 L2097.69 208.524 L2093.43 208.524 L2093.43 204.589 Q2091.97 206.95 2089.79 208.084 Q2087.62 209.195 2084.47 209.195 Q2080.49 209.195 2078.13 206.973 Q2075.79 204.728 2075.79 200.978 Q2075.79 196.603 2078.71 194.381 Q2081.65 192.158 2087.46 192.158 L2093.43 192.158 L2093.43 191.742 Q2093.43 188.802 2091.48 187.205 Q2089.56 185.584 2086.07 185.584 Q2083.84 185.584 2081.74 186.117 Q2079.63 186.649 2077.69 187.714 L2077.69 183.779 Q2080.03 182.876 2082.22 182.436 Q2084.42 181.973 2086.51 181.973 Q2092.13 181.973 2094.91 184.89 Q2097.69 187.807 2097.69 193.733 Z" fill="#000000" fill-rule="evenodd" fill-opacity="1" /><path clip-path="url(#clip190)" d="M 0 0 M2102.15 172.506 L2106.41 172.506 L2106.41 208.524 L2102.15 208.524 L2102.15 172.506 Z" fill="#000000" fill-rule="evenodd" fill-opacity="1" /><path clip-path="url(#clip190)" d="M 0 0 M2115 204.635 L2115 218.385 L2110.72 218.385 L2110.72 182.598 L2115 182.598 L2115 186.533 Q2116.34 184.219 2118.38 183.108 Q2120.44 181.973 2123.29 181.973 Q2128.01 181.973 2130.95 185.723 Q2133.91 189.473 2133.91 195.584 Q2133.91 201.695 2130.95 205.445 Q2128.01 209.195 2123.29 209.195 Q2120.44 209.195 2118.38 208.084 Q2116.34 206.95 2115 204.635 M2129.49 195.584 Q2129.49 190.885 2127.55 188.223 Q2125.63 185.538 2122.25 185.538 Q2118.87 185.538 2116.92 188.223 Q2115 190.885 2115 195.584 Q2115 200.283 2116.92 202.969 Q2118.87 205.631 2122.25 205.631 Q2125.63 205.631 2127.55 202.969 Q2129.49 200.283 2129.49 195.584 Z" fill="#000000" fill-rule="evenodd" fill-opacity="1" /><path clip-path="url(#clip190)" d="M 0 0 M2159.93 192.876 L2159.93 208.524 L2155.67 208.524 L2155.67 193.015 Q2155.67 189.334 2154.24 187.506 Q2152.8 185.677 2149.93 185.677 Q2146.48 185.677 2144.49 187.876 Q2142.5 190.075 2142.5 193.871 L2142.5 208.524 L2138.22 208.524 L2138.22 172.506 L2142.5 172.506 L2142.5 186.626 Q2144.03 184.288 2146.09 183.131 Q2148.17 181.973 2150.88 181.973 Q2155.35 181.973 2157.64 184.751 Q2159.93 187.506 2159.93 192.876 Z" fill="#000000" fill-rule="evenodd" fill-opacity="1" /><path clip-path="url(#clip190)" d="M 0 0 M2176.18 195.492 Q2171.02 195.492 2169.03 196.672 Q2167.04 197.853 2167.04 200.7 Q2167.04 202.969 2168.52 204.311 Q2170.02 205.631 2172.59 205.631 Q2176.14 205.631 2178.27 203.131 Q2180.42 200.607 2180.42 196.441 L2180.42 195.492 L2176.18 195.492 M2184.68 193.733 L2184.68 208.524 L2180.42 208.524 L2180.42 204.589 Q2178.96 206.95 2176.78 208.084 Q2174.61 209.195 2171.46 209.195 Q2167.48 209.195 2165.12 206.973 Q2162.78 204.728 2162.78 200.978 Q2162.78 196.603 2165.7 194.381 Q2168.64 192.158 2174.45 192.158 L2180.42 192.158 L2180.42 191.742 Q2180.42 188.802 2178.47 187.205 Q2176.55 185.584 2173.06 185.584 Q2170.83 185.584 2168.73 186.117 Q2166.62 186.649 2164.68 187.714 L2164.68 183.779 Q2167.02 182.876 2169.21 182.436 Q2171.41 181.973 2173.5 181.973 Q2179.12 181.973 2181.9 184.89 Q2184.68 187.807 2184.68 193.733 Z" fill="#000000" fill-rule="evenodd" fill-opacity="1" /><polyline clip-path="url(#clip190)" style="stroke:#e26f46; stroke-width:4; stroke-opacity:1; fill:none" points="
  1907.79,251.724 2051.79,251.724 
  "/>
<path clip-path="url(#clip190)" d="M 0 0 M2094.56 256.064 Q2094.56 251.365 2092.62 248.703 Q2090.7 246.018 2087.32 246.018 Q2083.94 246.018 2081.99 248.703 Q2080.07 251.365 2080.07 256.064 Q2080.07 260.763 2081.99 263.449 Q2083.94 266.111 2087.32 266.111 Q2090.7 266.111 2092.62 263.449 Q2094.56 260.763 2094.56 256.064 M2080.07 247.013 Q2081.41 244.699 2083.45 243.588 Q2085.51 242.453 2088.36 242.453 Q2093.08 242.453 2096.02 246.203 Q2098.98 249.953 2098.98 256.064 Q2098.98 262.175 2096.02 265.925 Q2093.08 269.675 2088.36 269.675 Q2085.51 269.675 2083.45 268.564 Q2081.41 267.43 2080.07 265.115 L2080.07 269.004 L2075.79 269.004 L2075.79 232.986 L2080.07 232.986 L2080.07 247.013 Z" fill="#000000" fill-rule="evenodd" fill-opacity="1" /><path clip-path="url(#clip190)" d="M 0 0 M2125.63 254.976 L2125.63 257.06 L2106.04 257.06 Q2106.32 261.458 2108.68 263.773 Q2111.07 266.064 2115.3 266.064 Q2117.76 266.064 2120.05 265.462 Q2122.36 264.861 2124.63 263.657 L2124.63 267.685 Q2122.34 268.657 2119.93 269.166 Q2117.53 269.675 2115.05 269.675 Q2108.84 269.675 2105.21 266.064 Q2101.6 262.453 2101.6 256.296 Q2101.6 249.93 2105.03 246.203 Q2108.47 242.453 2114.31 242.453 Q2119.54 242.453 2122.57 245.833 Q2125.63 249.189 2125.63 254.976 M2121.37 253.726 Q2121.32 250.231 2119.4 248.148 Q2117.5 246.064 2114.35 246.064 Q2110.79 246.064 2108.64 248.078 Q2106.51 250.092 2106.18 253.75 L2121.37 253.726 Z" fill="#000000" fill-rule="evenodd" fill-opacity="1" /><path clip-path="url(#clip190)" d="M 0 0 M2134.31 235.717 L2134.31 243.078 L2143.08 243.078 L2143.08 246.388 L2134.31 246.388 L2134.31 260.462 Q2134.31 263.634 2135.16 264.537 Q2136.04 265.439 2138.71 265.439 L2143.08 265.439 L2143.08 269.004 L2138.71 269.004 Q2133.77 269.004 2131.9 267.175 Q2130.02 265.324 2130.02 260.462 L2130.02 246.388 L2126.9 246.388 L2126.9 243.078 L2130.02 243.078 L2130.02 235.717 L2134.31 235.717 Z" fill="#000000" fill-rule="evenodd" fill-opacity="1" /><path clip-path="url(#clip190)" d="M 0 0 M2159.33 255.972 Q2154.17 255.972 2152.18 257.152 Q2150.19 258.333 2150.19 261.18 Q2150.19 263.449 2151.67 264.791 Q2153.17 266.111 2155.74 266.111 Q2159.28 266.111 2161.41 263.611 Q2163.57 261.087 2163.57 256.921 L2163.57 255.972 L2159.33 255.972 M2167.83 254.213 L2167.83 269.004 L2163.57 269.004 L2163.57 265.069 Q2162.11 267.43 2159.93 268.564 Q2157.76 269.675 2154.61 269.675 Q2150.63 269.675 2148.27 267.453 Q2145.93 265.208 2145.93 261.458 Q2145.93 257.083 2148.84 254.861 Q2151.78 252.638 2157.59 252.638 L2163.57 252.638 L2163.57 252.222 Q2163.57 249.282 2161.62 247.685 Q2159.7 246.064 2156.21 246.064 Q2153.98 246.064 2151.88 246.597 Q2149.77 247.129 2147.83 248.194 L2147.83 244.259 Q2150.16 243.356 2152.36 242.916 Q2154.56 242.453 2156.65 242.453 Q2162.27 242.453 2165.05 245.37 Q2167.83 248.287 2167.83 254.213 Z" fill="#000000" fill-rule="evenodd" fill-opacity="1" /><polyline clip-path="url(#clip190)" style="stroke:#3da44d; stroke-width:4; stroke-opacity:1; fill:none" points="
  1907.79,312.204 2051.79,312.204 
  "/>
<path clip-path="url(#clip190)" d="M 0 0 M2094.7 316.22 Q2094.7 311.591 2092.78 309.044 Q2090.88 306.498 2087.43 306.498 Q2084.01 306.498 2082.09 309.044 Q2080.19 311.591 2080.19 316.22 Q2080.19 320.827 2082.09 323.373 Q2084.01 325.919 2087.43 325.919 Q2090.88 325.919 2092.78 323.373 Q2094.7 320.827 2094.7 316.22 M2098.96 326.267 Q2098.96 332.887 2096.02 336.104 Q2093.08 339.345 2087.02 339.345 Q2084.77 339.345 2082.78 338.998 Q2080.79 338.674 2078.91 337.979 L2078.91 333.836 Q2080.79 334.854 2082.62 335.341 Q2084.45 335.827 2086.34 335.827 Q2090.53 335.827 2092.62 333.628 Q2094.7 331.452 2094.7 327.03 L2094.7 324.924 Q2093.38 327.216 2091.32 328.35 Q2089.26 329.484 2086.39 329.484 Q2081.62 329.484 2078.71 325.85 Q2075.79 322.216 2075.79 316.22 Q2075.79 310.202 2078.71 306.568 Q2081.62 302.933 2086.39 302.933 Q2089.26 302.933 2091.32 304.068 Q2093.38 305.202 2094.7 307.493 L2094.7 303.558 L2098.96 303.558 L2098.96 326.267 Z" fill="#000000" fill-rule="evenodd" fill-opacity="1" /><path clip-path="url(#clip190)" d="M 0 0 M2115.21 316.452 Q2110.05 316.452 2108.06 317.632 Q2106.07 318.813 2106.07 321.66 Q2106.07 323.929 2107.55 325.271 Q2109.05 326.591 2111.62 326.591 Q2115.16 326.591 2117.29 324.091 Q2119.45 321.567 2119.45 317.401 L2119.45 316.452 L2115.21 316.452 M2123.71 314.693 L2123.71 329.484 L2119.45 329.484 L2119.45 325.549 Q2117.99 327.91 2115.81 329.044 Q2113.64 330.155 2110.49 330.155 Q2106.51 330.155 2104.15 327.933 Q2101.81 325.688 2101.81 321.938 Q2101.81 317.563 2104.72 315.341 Q2107.66 313.118 2113.47 313.118 L2119.45 313.118 L2119.45 312.702 Q2119.45 309.762 2117.5 308.165 Q2115.58 306.544 2112.09 306.544 Q2109.86 306.544 2107.76 307.077 Q2105.65 307.609 2103.71 308.674 L2103.71 304.739 Q2106.04 303.836 2108.24 303.396 Q2110.44 302.933 2112.53 302.933 Q2118.15 302.933 2120.93 305.85 Q2123.71 308.767 2123.71 314.693 Z" fill="#000000" fill-rule="evenodd" fill-opacity="1" /><path clip-path="url(#clip190)" d="M 0 0 M2148.36 308.535 Q2149.96 305.665 2152.18 304.299 Q2154.4 302.933 2157.41 302.933 Q2161.46 302.933 2163.66 305.781 Q2165.86 308.605 2165.86 313.836 L2165.86 329.484 L2161.58 329.484 L2161.58 313.975 Q2161.58 310.248 2160.26 308.443 Q2158.94 306.637 2156.23 306.637 Q2152.92 306.637 2151 308.836 Q2149.08 311.035 2149.08 314.831 L2149.08 329.484 L2144.79 329.484 L2144.79 313.975 Q2144.79 310.225 2143.47 308.443 Q2142.15 306.637 2139.4 306.637 Q2136.14 306.637 2134.21 308.859 Q2132.29 311.058 2132.29 314.831 L2132.29 329.484 L2128.01 329.484 L2128.01 303.558 L2132.29 303.558 L2132.29 307.586 Q2133.75 305.202 2135.79 304.068 Q2137.83 302.933 2140.63 302.933 Q2143.45 302.933 2145.42 304.368 Q2147.41 305.804 2148.36 308.535 Z" fill="#000000" fill-rule="evenodd" fill-opacity="1" /><path clip-path="url(#clip190)" d="M 0 0 M2190.51 308.535 Q2192.11 305.665 2194.33 304.299 Q2196.55 302.933 2199.56 302.933 Q2203.61 302.933 2205.81 305.781 Q2208.01 308.605 2208.01 313.836 L2208.01 329.484 L2203.73 329.484 L2203.73 313.975 Q2203.73 310.248 2202.41 308.443 Q2201.09 306.637 2198.38 306.637 Q2195.07 306.637 2193.15 308.836 Q2191.23 311.035 2191.23 314.831 L2191.23 329.484 L2186.95 329.484 L2186.95 313.975 Q2186.95 310.225 2185.63 308.443 Q2184.31 306.637 2181.55 306.637 Q2178.29 306.637 2176.37 308.859 Q2174.45 311.058 2174.45 314.831 L2174.45 329.484 L2170.16 329.484 L2170.16 303.558 L2174.45 303.558 L2174.45 307.586 Q2175.9 305.202 2177.94 304.068 Q2179.98 302.933 2182.78 302.933 Q2185.6 302.933 2187.57 304.368 Q2189.56 305.804 2190.51 308.535 Z" fill="#000000" fill-rule="evenodd" fill-opacity="1" /><path clip-path="url(#clip190)" d="M 0 0 M2224.26 316.452 Q2219.1 316.452 2217.11 317.632 Q2215.12 318.813 2215.12 321.66 Q2215.12 323.929 2216.6 325.271 Q2218.1 326.591 2220.67 326.591 Q2224.21 326.591 2226.34 324.091 Q2228.5 321.567 2228.5 317.401 L2228.5 316.452 L2224.26 316.452 M2232.76 314.693 L2232.76 329.484 L2228.5 329.484 L2228.5 325.549 Q2227.04 327.91 2224.86 329.044 Q2222.69 330.155 2219.54 330.155 Q2215.56 330.155 2213.2 327.933 Q2210.86 325.688 2210.86 321.938 Q2210.86 317.563 2213.77 315.341 Q2216.71 313.118 2222.52 313.118 L2228.5 313.118 L2228.5 312.702 Q2228.5 309.762 2226.55 308.165 Q2224.63 306.544 2221.14 306.544 Q2218.91 306.544 2216.81 307.077 Q2214.7 307.609 2212.76 308.674 L2212.76 304.739 Q2215.09 303.836 2217.29 303.396 Q2219.49 302.933 2221.58 302.933 Q2227.2 302.933 2229.98 305.85 Q2232.76 308.767 2232.76 314.693 Z" fill="#000000" fill-rule="evenodd" fill-opacity="1" /></svg>
